<?xml version="1.0" encoding="UTF-8" standalone="no"?>
<svg
   xmlns:dc="http://purl.org/dc/elements/1.1/"
   xmlns:cc="http://creativecommons.org/ns#"
   xmlns:rdf="http://www.w3.org/1999/02/22-rdf-syntax-ns#"
   xmlns:svg="http://www.w3.org/2000/svg"
   xmlns="http://www.w3.org/2000/svg"
   id="svg1246"
   version="1.1"
   viewBox="0 0 132.09959 74.747012"
   height="74.747009mm"
   width="132.09959mm">
  <defs
     id="defs1240" />
  <metadata
     id="metadata1243">
    <rdf:RDF>
      <cc:Work
         rdf:about="">
        <dc:format>image/svg+xml</dc:format>
        <dc:type
           rdf:resource="http://purl.org/dc/dcmitype/StillImage" />
        <dc:title></dc:title>
      </cc:Work>
    </rdf:RDF>
  </metadata>
  <g
     transform="translate(70.433101,183.94642)"
     id="layer1">
    <path
       id="path1055"
       d="m -5.8831613,-183.89641 c -7.9221007,0.004 -14.7229507,5.63843 -16.2010717,13.4214 l -46.469513,26.82886 h -1.829355 v 18.99987 l 2.070682,7.72718 3.86334,-1.03508 2.329048,8.69353 8.69352,-2.32958 -2.329576,-8.69352 4.830206,-1.29398 2.329048,8.69352 8.693521,-2.32957 -2.329551,-8.69301 2.758996,-0.73949 h 0.09043 v -0.0243 l 1.014413,-0.27182 -1.014413,-3.78529 v -6.93395 l 28.036018,-16.18661 c 1.7546627,0.62336 3.6021687,0.9452 5.4642537,0.95188 9.112726,-1.1e-4 16.4999193,-7.38755 16.4997873,-16.50028 -1.32e-4,-9.11252 -7.3872723,-16.49965 -16.4997873,-16.49977 z m 0,12.50001 c 2.208953,1.3e-4 3.999627,1.79081 3.999759,3.99976 1.59e-4,2.20915 -1.790594,4.00014 -3.999759,4.00027 -2.20935,1.5e-4 -4.000421,-1.79092 -4.000262,-4.00027 1.32e-4,-2.20915 1.791124,-3.9999 4.000262,-3.99976 z m -21.4999617,15.00012 c 0.828357,-9e-5 1.499976,0.6713 1.500161,1.49965 1.06e-4,0.82856 -0.671619,1.50026 -1.500161,1.50017 -0.828569,1e-4 -1.500294,-0.6716 -1.500188,-1.50017 1.85e-4,-0.82836 0.67183,-1.49975 1.500188,-1.49965 z m -19.500109,11.24996 c 0.828542,-9e-5 1.500266,0.67161 1.500161,1.50017 -1.86e-4,0.82835 -0.671804,1.49974 -1.500161,1.49965 -0.828358,9e-5 -1.499976,-0.6713 -1.500161,-1.49965 -1.06e-4,-0.82856 0.671618,-1.50026 1.500161,-1.50017 z m -10.500149,3.50005 c 2.209165,-1.6e-4 4.000156,1.7906 4.000289,3.99975 1.58e-4,2.20936 -1.790939,4.00043 -4.000289,4.00027 -2.209138,-1.5e-4 -3.999891,-1.79113 -3.999732,-4.00027 1.05e-4,-2.20894 1.790805,-3.99961 3.999732,-3.99975 z m 12.026159,21.75216 a 1.4999916,1.4999916 0 0 1 1.391629,1.11001 1.4999916,1.4999916 0 0 1 -1.060899,1.83761 1.4999916,1.4999916 0 0 1 -1.837108,-1.06092 1.4999916,1.4999916 0 0 1 1.060926,-1.83709 1.4999916,1.4999916 0 0 1 0.445452,-0.0496 z m -13.523224,3.62355 a 1.4999916,1.4999916 0 0 1 1.391655,1.11001 1.4999916,1.4999916 0 0 1 -1.060926,1.83761 1.4999916,1.4999916 0 0 1 -1.836579,-1.06092 1.4999916,1.4999916 0 0 1 1.060397,-1.83709 1.4999916,1.4999916 0 0 1 0.445453,-0.0496 z"
       style="fill:none;stroke:#000000;stroke-width:0.1;stroke-miterlimit:4;stroke-dasharray:none;stroke-opacity:1" />
    <path
       id="rect1069"
       d="m 29.241947,-136.64617 v 2.99982 h -1.999879 v 11.00036 h 1.999879 v 2.99982 h 6.000142 v -2.99982 h 1.999879 v -11.00036 h -1.999879 v -2.99982 z m 1.812793,2.94297 h 2.375059 l 1.187,2.05724 -1.187503,2.05673 H 31.05474 l -1.187503,-2.05724 z m 0,7.00009 h 2.375059 l 1.187,2.05673 -1.187503,2.05723 H 31.05474 l -1.187503,-2.05723 z"
       style="fill:none;stroke:#000000;stroke-width:0.1;stroke-miterlimit:4;stroke-dasharray:none;stroke-opacity:1" />
    <path
       id="rect1128"
       d="m 51.616586,-139.64598 v 18.99987 a 4.9999958,4.9999958 0 0 0 4.999693,5.00022 4.9999958,4.9999958 0 0 0 5.000213,-5.00022 v -18.99987 h -1.999877 v 2.99982 h -6.000152 v -2.99982 z m 5.000212,14.9996 a 3.9999996,3.9999996 0 0 1 3.999754,4.00027 3.9999996,3.9999996 0 0 1 -3.999754,3.99976 3.9999996,3.9999996 0 0 1 -4.000272,-3.99976 3.9999996,3.9999996 0 0 1 4.000272,-4.00027 z"
       style="fill:none;stroke:#000000;stroke-width:0.1;stroke-miterlimit:4;stroke-dasharray:none;stroke-opacity:1" />
    <circle
       r="3.9999952"
       cy="-167.39638"
       cx="-5.883162"
       id="path1188"
       style="fill:none;stroke:#000000;stroke-width:0.10000001;stroke-miterlimit:4;stroke-dasharray:none;stroke-opacity:1" />
  </g>
</svg>
