<?xml version="1.0" encoding="UTF-8" standalone="no"?>
<svg
   xmlns:dc="http://purl.org/dc/elements/1.1/"
   xmlns:cc="http://creativecommons.org/ns#"
   xmlns:rdf="http://www.w3.org/1999/02/22-rdf-syntax-ns#"
   xmlns:svg="http://www.w3.org/2000/svg"
   xmlns="http://www.w3.org/2000/svg"
   xmlns:sodipodi="http://sodipodi.sourceforge.net/DTD/sodipodi-0.dtd"
   xmlns:inkscape="http://www.inkscape.org/namespaces/inkscape"
   version="1.1"
   id="svg4386"
   viewBox="0 0 386.57483 42.874027"
   height="12.100003mm"
   width="109.10001mm"
   inkscape:version="0.91 r13725"
   sodipodi:docname="front-steering-bar.svg">
  <sodipodi:namedview
     pagecolor="#ffffff"
     bordercolor="#666666"
     borderopacity="1"
     objecttolerance="10"
     gridtolerance="10"
     guidetolerance="10"
     inkscape:pageopacity="0"
     inkscape:pageshadow="2"
     inkscape:window-width="3775"
     inkscape:window-height="2136"
     id="namedview4173"
     showgrid="true"
     fit-margin-top="0"
     fit-margin-left="0"
     fit-margin-right="0"
     fit-margin-bottom="0"
     inkscape:document-units="mm"
     inkscape:zoom="40.880179"
     inkscape:cx="50.08742"
     inkscape:cy="17.449258"
     inkscape:window-x="65"
     inkscape:window-y="24"
     inkscape:window-maximized="1"
     inkscape:current-layer="svg4386">
    <inkscape:grid
       type="xygrid"
       id="grid4175"
       originx="-6.2584868e-07"
       originy="-2.2525437e-06"
       units="mm"
       spacingx="0.8858267"
       spacingy="0.88582677" />
  </sodipodi:namedview>
  <defs
     id="defs4388" />
  <metadata
     id="metadata4391">
    <rdf:RDF>
      <cc:Work
         rdf:about="">
        <dc:format>image/svg+xml</dc:format>
        <dc:type
           rdf:resource="http://purl.org/dc/dcmitype/StillImage" />
        <dc:title></dc:title>
      </cc:Work>
    </rdf:RDF>
  </metadata>
  <path
     style="fill:none;stroke:#000000;stroke-width:0.35433072;stroke-miterlimit:4;stroke-dasharray:none;stroke-opacity:1"
     d="M 21.4375 0.17773438 A 21.259846 21.259846 0 0 0 0.17773438 21.4375 A 21.259846 21.259846 0 0 0 21.4375 42.697266 L 365.13867 42.697266 A 21.259846 21.259846 0 0 0 386.39844 21.4375 A 21.259846 21.259846 0 0 0 365.13867 0.17773438 L 21.4375 0.17773438 z M 33.837891 6.8203125 A 14.616157 14.616158 0 0 1 48.455078 21.4375 A 14.616157 14.616158 0 0 1 33.837891 36.052734 A 14.616157 14.616158 0 0 1 19.222656 21.4375 A 14.616157 14.616158 0 0 1 33.837891 6.8203125 z M 352.73633 6.8203125 A 14.616157 14.616158 0 0 1 367.35156 21.4375 A 14.616157 14.616158 0 0 1 352.73633 36.052734 A 14.616157 14.616158 0 0 1 338.12109 21.4375 A 14.616157 14.616158 0 0 1 352.73633 6.8203125 z "
     id="rect937"
     transform="translate(-1.5258789e-5,0)" />
  <ellipse
     style="fill:none;stroke:#000000;stroke-width:0.35433072;stroke-miterlimit:4;stroke-dasharray:none;stroke-opacity:1"
     id="path939"
     cx="193.28743"
     cy="21.437008"
     rx="5.3149519"
     ry="5.3149543" />
  <ellipse
     ry="5.3149543"
     rx="5.3149519"
     cy="21.437008"
     cx="33.838623"
     id="ellipse941"
     style="fill:none;stroke:#000000;stroke-width:0.35433072;stroke-miterlimit:4;stroke-dasharray:none;stroke-opacity:1" />
  <ellipse
     style="fill:none;stroke:#000000;stroke-width:0.35433072;stroke-miterlimit:4;stroke-dasharray:none;stroke-opacity:1"
     id="ellipse943"
     cx="352.7363"
     cy="21.437008"
     rx="5.3149519"
     ry="5.3149543" />
</svg>
