<?xml version="1.0" encoding="UTF-8" standalone="no"?>
<svg
   xmlns:dc="http://purl.org/dc/elements/1.1/"
   xmlns:cc="http://creativecommons.org/ns#"
   xmlns:rdf="http://www.w3.org/1999/02/22-rdf-syntax-ns#"
   xmlns:svg="http://www.w3.org/2000/svg"
   xmlns="http://www.w3.org/2000/svg"
   xmlns:sodipodi="http://sodipodi.sourceforge.net/DTD/sodipodi-0.dtd"
   xmlns:inkscape="http://www.inkscape.org/namespaces/inkscape"
   version="1.1"
   id="svg2"
   viewBox="0 0 744.09448819 1052.3622047"
   height="297mm"
   width="210mm"
   sodipodi:docname="rock-crawler.inkscape.svg"
   inkscape:version="0.91 r13725">
  <sodipodi:namedview
     pagecolor="#ffffff"
     bordercolor="#666666"
     borderopacity="1"
     objecttolerance="50"
     gridtolerance="10000"
     guidetolerance="10"
     inkscape:pageopacity="0"
     inkscape:pageshadow="2"
     inkscape:window-width="3775"
     inkscape:window-height="2136"
     id="namedview80"
     showgrid="true"
     inkscape:document-units="mm"
     inkscape:zoom="5.6568542"
     inkscape:cx="296.45786"
     inkscape:cy="795.24967"
     inkscape:window-x="65"
     inkscape:window-y="24"
     inkscape:window-maximized="1"
     inkscape:current-layer="svg2"
     inkscape:snap-global="true">
    <inkscape:grid
       type="xygrid"
       id="grid3771"
       units="mm"
       spacingx="1.7716536"
       spacingy="1.7716536"
       empspacing="10"
       visible="false"
       enabled="false" />
    <inkscape:grid
       type="xygrid"
       id="grid4765"
       units="mm"
       spacingx="0.88582678"
       spacingy="0.88582679"
       empspacing="4"
       visible="true"
       snapvisiblegridlinesonly="true"
       dotted="false" />
  </sodipodi:namedview>
  <defs
     id="defs4" />
  <metadata
     id="metadata7">
    <rdf:RDF>
      <cc:Work
         rdf:about="">
        <dc:format>image/svg+xml</dc:format>
        <dc:type
           rdf:resource="http://purl.org/dc/dcmitype/StillImage" />
        <dc:title></dc:title>
      </cc:Work>
    </rdf:RDF>
  </metadata>
  <path
     style="fill:#505050;fill-opacity:1;stroke:#000000;stroke-width:0.36319897;stroke-linecap:butt;stroke-linejoin:miter;stroke-miterlimit:9.05000019;stroke-dasharray:none;stroke-opacity:1"
     d="m 29.67994,107.35301 a 38.799103,38.799103 0 0 0 -38.79883,38.79882 38.799103,38.799103 0 0 0 0.01,0.17774 l -0.01,0 0,251.2207 0.004,0 0,42.51563 77.58984,0 0,-42.51563 0.004,0 0,-251.2207 -0.006,0 a 38.799103,38.799103 0 0 0 0.006,-0.17774 38.799103,38.799103 0 0 0 -38.79883,-38.79882 z m 0,33.48437 a 5.3149605,5.3149605 0 0 1 5.31641,5.31445 5.3149605,5.3149605 0 0 1 -5.31641,5.31446 5.3149605,5.3149605 0 0 1 -5.31445,-5.31446 5.3149605,5.3149605 0 0 1 5.31445,-5.31445 z M 3.2815,284.51707 l 52.79688,0 0,88.23047 -52.79688,0 0,-88.23047 z m -3.71875002,109.83789 a 3.3713012,3.3713012 0 0 1 3.37110002,3.37305 3.3713012,3.3713012 0 0 1 -3.37110002,3.37109 3.3713012,3.3713012 0 0 1 -3.37108998,-3.37109 3.3713012,3.3713012 0 0 1 3.37108998,-3.37305 z m 60.23633002,0 a 3.3713012,3.3713012 0 0 1 3.37109,3.37305 3.3713012,3.3713012 0 0 1 -3.37109,3.37109 3.3713012,3.3713012 0 0 1 -3.37109,-3.37109 3.3713012,3.3713012 0 0 1 3.37109,-3.37305 z m -30.11914,21.26172 a 6.9137697,6.9137697 0 0 1 6.91406,6.91406 6.9137697,6.9137697 0 0 1 -6.91406,6.91406 6.9137697,6.9137697 0 0 1 -6.91406,-6.91406 6.9137697,6.9137697 0 0 1 6.91406,-6.91406 z"
     id="rect4168"
     inkscape:connector-curvature="0" />
  <circle
     style="fill:none;fill-opacity:1;stroke:#000000;stroke-width:0.34401175;stroke-linecap:butt;stroke-linejoin:miter;stroke-miterlimit:9.05000019;stroke-dasharray:none;stroke-opacity:1"
     id="path5337"
     cx="147.04726"
     cy="379.13388"
     r="3.3713012" />
  <circle
     cy="379.13388"
     cx="207.28348"
     id="circle5341"
     style="fill:none;fill-opacity:1;stroke:#000000;stroke-width:0.34401175;stroke-linecap:butt;stroke-linejoin:miter;stroke-miterlimit:9.05000019;stroke-dasharray:none;stroke-opacity:1"
     r="3.3713012" />
  <circle
     style="fill:none;fill-opacity:1;stroke:#000000;stroke-width:0.34568849;stroke-linecap:butt;stroke-linejoin:miter;stroke-miterlimit:9.05000019;stroke-dasharray:none;stroke-opacity:1"
     id="path5347"
     cx="177.16534"
     cy="403.93701"
     r="6.9137697" />
  <rect
     style="fill:none;fill-opacity:1;stroke:#000000;stroke-width:0.36319897;stroke-linecap:butt;stroke-linejoin:miter;stroke-miterlimit:9.05000019;stroke-dasharray:none;stroke-opacity:1"
     id="rect5351"
     width="77.589554"
     height="59.87302"
     x="138.37057"
     y="361.59894" />
  <rect
     style="fill:none;fill-opacity:1;stroke:#000000;stroke-width:0.35181612;stroke-linecap:butt;stroke-linejoin:miter;stroke-miterlimit:9.05000019;stroke-dasharray:none;stroke-opacity:1"
     id="rect5361"
     width="60.238735"
     height="24.451334"
     x="147.04599"
     y="354.50662" />
  <rect
     style="fill:none;fill-opacity:1;stroke:#000000;stroke-width:0.35259745;stroke-linecap:butt;stroke-linejoin:miter;stroke-miterlimit:9.05000019;stroke-dasharray:none;stroke-opacity:1"
     id="rect5369"
     width="52.797009"
     height="88.23008"
     x="150.76685"
     y="265.92432" />
  <rect
     style="fill:none;fill-opacity:1;stroke:#000000;stroke-width:0.35433071;stroke-linecap:butt;stroke-linejoin:miter;stroke-miterlimit:9.05000019;stroke-dasharray:none;stroke-opacity:1"
     id="rect5371"
     width="77.598427"
     height="141.37796"
     x="138.36536"
     y="237.57956" />
  <circle
     style="fill:none;fill-opacity:1;stroke:#000000;stroke-width:0.35433071;stroke-linecap:butt;stroke-linejoin:miter;stroke-miterlimit:9.05000019;stroke-dasharray:none;stroke-opacity:1"
     id="path5373"
     cx="177.16547"
     cy="-237.40147"
     transform="scale(1,-1)"
     r="38.799213" />
  <circle
     id="path3773"
     cx="177.16536"
     cy="-237.40158"
     style="fill:none;stroke:#000000;stroke-width:0.35433072;stroke-miterlimit:4;stroke-dasharray:none;stroke-opacity:1"
     r="5.3149605"
     transform="scale(1,-1)" />
  <circle
     transform="scale(1,-1)"
     r="38.799103"
     cy="-127.55906"
     cx="177.16536"
     id="circle4614"
     style="fill:none;fill-opacity:1;stroke:#000000;stroke-width:0.35433071;stroke-linecap:butt;stroke-linejoin:miter;stroke-miterlimit:9.05000019;stroke-dasharray:none;stroke-opacity:1" />
  <circle
     transform="scale(1,-1)"
     r="5.3149605"
     style="fill:none;stroke:#000000;stroke-width:0.35433072;stroke-miterlimit:4;stroke-dasharray:none;stroke-opacity:1"
     cy="-127.55906"
     cx="177.16536"
     id="circle4616" />
  <rect
     y="127.73622"
     x="138.36613"
     height="109.48819"
     width="77.598427"
     id="rect4160"
     style="fill:none;fill-opacity:1;stroke:#000000;stroke-width:0.35433072;stroke-linecap:butt;stroke-linejoin:miter;stroke-miterlimit:9.05000019;stroke-dasharray:none;stroke-opacity:1" />
  <rect
     style="fill:#505050;fill-opacity:1;stroke:#000000;stroke-width:0.86862224;stroke-linecap:butt;stroke-linejoin:miter;stroke-miterlimit:9.05000019;stroke-dasharray:none;stroke-opacity:1"
     id="rect4194"
     width="261.33609"
     height="55.824291"
     x="-170.58554"
     y="611.38043"
     transform="matrix(0,-1,1,0,0,0)" />
  <path
     inkscape:connector-curvature="0"
     id="path4196"
     d="m 627.06182,108.58884 a 38.799103,38.799103 0 0 0 -1.82167,54.83958 38.799103,38.799103 0 0 0 0.12874,0.12295 l -0.007,0.007 171.64432,183.43954 0.003,-0.003 29.04843,31.04461 56.65554,-53.01257 -29.04843,-31.04461 0.003,-0.003 -171.64432,-183.43955 -0.004,0.004 a 38.799103,38.799103 0 0 0 -0.11706,-0.13388 38.799103,38.799103 0 0 0 -54.83958,-1.82166 z m 22.8779,24.45005 a 5.3149605,5.3149605 0 0 1 7.51306,0.24818 5.3149605,5.3149605 0 0 1 -0.25095,7.51297 5.3149605,5.3149605 0 0 1 -7.51163,-0.24953 5.3149605,5.3149605 0 0 1 0.24952,-7.51162 z m 78.89193,122.95037 38.5519,-36.073 60.28269,64.42525 -38.5519,36.073 -60.28269,-64.42525 z m 72.33036,82.74364 a 3.3713012,3.3713012 0 0 1 4.76616,0.1597 3.3713012,3.3713012 0 0 1 -0.15828,4.76482 3.3713012,3.3713012 0 0 1 -4.76481,-0.15828 3.3713012,3.3713012 0 0 1 0.15693,-4.76624 z m 43.98414,-41.15594 a 3.3713012,3.3713012 0 0 1 4.76615,0.15971 3.3713012,3.3713012 0 0 1 -0.15828,4.76481 3.3713012,3.3713012 0 0 1 -4.76481,-0.15828 3.3713012,3.3713012 0 0 1 0.15694,-4.76624 z m -7.4659,36.10379 a 6.9137697,6.9137697 0 0 1 9.77257,0.32463 6.9137697,6.9137697 0 0 1 -0.32463,9.77256 6.9137697,6.9137697 0 0 1 -9.77256,-0.32462 6.9137697,6.9137697 0 0 1 0.32462,-9.77257 z"
     style="fill:#505050;fill-opacity:1;stroke:#000000;stroke-width:0.36319897;stroke-linecap:butt;stroke-linejoin:miter;stroke-miterlimit:9.05000019;stroke-dasharray:none;stroke-opacity:1" />
  <rect
     style="fill:#505050;fill-opacity:1;stroke:#000000;stroke-width:0.44755715;stroke-linecap:butt;stroke-linejoin:miter;stroke-miterlimit:9.05000019;stroke-dasharray:none;stroke-opacity:1"
     id="rect4198"
     width="55.536697"
     height="118.25323"
     x="547.56207"
     y="-26.390491" />
  <path
     inkscape:connector-curvature="0"
     id="path4711"
     d="m -67.318788,117.10551 a 38.799103,38.799103 0 0 0 -38.798822,38.79882 38.799103,38.799103 0 0 0 0.01,0.17774 l -0.01,0 0,251.2207 0.004,0 0,42.51563 77.589832,0 0,-42.51563 0.004,0 0,-251.2207 -0.006,0 a 38.799103,38.799103 0 0 0 0.006,-0.17774 38.799103,38.799103 0 0 0 -38.79883,-38.79882 z m 0,33.48437 a 5.3149605,5.3149605 0 0 1 5.31641,5.31445 5.3149605,5.3149605 0 0 1 -5.31641,5.31446 5.3149605,5.3149605 0 0 1 -5.31445,-5.31446 5.3149605,5.3149605 0 0 1 5.31445,-5.31445 z m -26.39844,143.67969 52.79688,0 0,88.23047 -52.79688,0 0,-88.23047 z m -3.718745,109.83789 a 3.3713012,3.3713012 0 0 1 3.371095,3.37305 3.3713012,3.3713012 0 0 1 -3.371095,3.37109 3.3713012,3.3713012 0 0 1 -3.371087,-3.37109 3.3713012,3.3713012 0 0 1 3.371087,-3.37305 z m 60.236325,0 a 3.3713012,3.3713012 0 0 1 3.37109,3.37305 3.3713012,3.3713012 0 0 1 -3.37109,3.37109 3.3713012,3.3713012 0 0 1 -3.37109,-3.37109 3.3713012,3.3713012 0 0 1 3.37109,-3.37305 z m -30.11914,21.26172 a 6.9137697,6.9137697 0 0 1 6.91406,6.91406 6.9137697,6.9137697 0 0 1 -6.91406,6.91406 6.9137697,6.9137697 0 0 1 -6.91406,-6.91406 6.9137697,6.9137697 0 0 1 6.91406,-6.91406 z"
     style="fill:#505050;fill-opacity:1;stroke:#000000;stroke-width:0.36319897;stroke-linecap:butt;stroke-linejoin:miter;stroke-miterlimit:9.05000019;stroke-dasharray:none;stroke-opacity:1" />
  <rect
     style="fill:none;fill-opacity:1;stroke:#000000;stroke-width:0.35433071;stroke-linecap:butt;stroke-linejoin:miter;stroke-miterlimit:9.05000019;stroke-dasharray:none;stroke-opacity:1"
     id="rect4715"
     width="52.722343"
     height="13.745966"
     x="150.80418"
     y="251.78845" />
  <circle
     r="3.5440803"
     cy="372.04724"
     cx="292.32361"
     id="circle4717"
     style="fill:none;fill-opacity:1;stroke:#000000;stroke-width:0.34401175;stroke-linecap:butt;stroke-linejoin:miter;stroke-miterlimit:9.05000019;stroke-dasharray:none;stroke-opacity:1" />
  <circle
     r="3.5440965"
     style="fill:none;fill-opacity:1;stroke:#000000;stroke-width:0.34401175;stroke-linecap:butt;stroke-linejoin:miter;stroke-miterlimit:9.05000019;stroke-dasharray:none;stroke-opacity:1"
     id="circle4719"
     cx="352.55984"
     cy="372.04724" />
  <circle
     r="7.0873804"
     cy="396.85037"
     cx="322.44171"
     id="circle4721"
     style="fill:none;fill-opacity:1;stroke:#000000;stroke-width:0.34568849;stroke-linecap:butt;stroke-linejoin:miter;stroke-miterlimit:9.05000019;stroke-dasharray:none;stroke-opacity:1" />
  <rect
     y="354.33072"
     x="283.46457"
     height="60.23621"
     width="77.952751"
     id="rect4723"
     style="fill:none;fill-opacity:1;stroke:#000000;stroke-width:0.35433071;stroke-linecap:butt;stroke-linejoin:miter;stroke-miterlimit:9.05000019;stroke-dasharray:none;stroke-opacity:1" />
  <rect
     y="347.41998"
     x="292.32236"
     height="24.451334"
     width="60.238735"
     id="rect4725"
     style="fill:none;fill-opacity:1;stroke:#000000;stroke-width:0.35181612;stroke-linecap:butt;stroke-linejoin:miter;stroke-miterlimit:9.05000019;stroke-dasharray:none;stroke-opacity:1" />
  <rect
     y="258.66141"
     x="295.86615"
     height="88.582664"
     width="53.149605"
     id="rect4727"
     style="fill:none;fill-opacity:1;stroke:#000000;stroke-width:0.35259745;stroke-linecap:butt;stroke-linejoin:miter;stroke-miterlimit:9.05000019;stroke-dasharray:none;stroke-opacity:1" />
  <rect
     y="223.22835"
     x="283.46457"
     height="148.81889"
     width="77.952759"
     id="rect4729"
     style="fill:none;fill-opacity:1;stroke:#000000;stroke-width:0.35433072;stroke-linecap:butt;stroke-linejoin:miter;stroke-miterlimit:9.05000019;stroke-dasharray:none;stroke-opacity:1" />
  <circle
     transform="scale(1,-1)"
     r="5.3149605"
     style="fill:none;stroke:#000000;stroke-width:0.35433072;stroke-miterlimit:4;stroke-dasharray:none;stroke-opacity:1"
     cy="-230.31497"
     cx="322.44171"
     id="circle4731" />
  <rect
     y="244.48819"
     x="295.86615"
     height="14.173228"
     width="53.149597"
     id="rect4733"
     style="fill:none;fill-opacity:1;stroke:#000000;stroke-width:0.35433072;stroke-linecap:butt;stroke-linejoin:miter;stroke-miterlimit:9.05000019;stroke-dasharray:none;stroke-opacity:1" />
  <rect
     style="fill:none;fill-opacity:1;stroke:#000000;stroke-width:0.35433072;stroke-linecap:butt;stroke-linejoin:miter;stroke-miterlimit:9.05000019;stroke-dasharray:none;stroke-opacity:1"
     id="rect4735"
     width="53.149597"
     height="7.0866132"
     x="295.86615"
     y="223.22835" />
  <rect
     style="fill:none;fill-opacity:1;stroke:#000000;stroke-width:0.35433072;stroke-linecap:butt;stroke-linejoin:miter;stroke-miterlimit:9.05000019;stroke-dasharray:none;stroke-opacity:1"
     id="rect4741"
     width="10.629917"
     height="65.55117"
     x="379.13385"
     y="136.41736" />
  <rect
     style="fill:none;fill-opacity:1;stroke:#000000;stroke-width:0.35433072;stroke-linecap:butt;stroke-linejoin:miter;stroke-miterlimit:9.05000019;stroke-dasharray:none;stroke-opacity:1"
     id="rect4745"
     width="77.952751"
     height="65.551178"
     x="283.46457"
     y="136.41736" />
  <rect
     style="fill:none;fill-opacity:1;stroke:#000000;stroke-width:0.35433072;stroke-linecap:butt;stroke-linejoin:miter;stroke-miterlimit:9.05000019;stroke-dasharray:none;stroke-opacity:1"
     id="rect4747"
     width="53.149605"
     height="7.0866137"
     x="295.86612"
     y="201.96854" />
  <rect
     style="fill:none;fill-opacity:1;stroke:#000000;stroke-width:0.35433072;stroke-linecap:butt;stroke-linejoin:miter;stroke-miterlimit:9.05000019;stroke-dasharray:none;stroke-opacity:1"
     id="rect4749"
     width="53.149605"
     height="7.0866137"
     x="295.86612"
     y="129.33075" />
  <rect
     style="fill:none;fill-opacity:1;stroke:#000000;stroke-width:0.35433072;stroke-linecap:butt;stroke-linejoin:miter;stroke-miterlimit:9.05000019;stroke-dasharray:none;stroke-opacity:1"
     id="rect4755"
     width="77.952751"
     height="17.716536"
     x="283.46457"
     y="258.66147" />
  <rect
     style="fill:none;fill-opacity:1;stroke:#000000;stroke-width:0.35433072;stroke-linecap:butt;stroke-linejoin:miter;stroke-miterlimit:9.05000019;stroke-dasharray:none;stroke-opacity:1"
     id="rect4757"
     width="7.086607"
     height="38.976379"
     x="276.37796"
     y="248.03149" />
  <rect
     y="248.03149"
     x="361.41733"
     height="38.976379"
     width="7.0866098"
     id="rect4759"
     style="fill:none;fill-opacity:1;stroke:#000000;stroke-width:0.35433072;stroke-linecap:butt;stroke-linejoin:miter;stroke-miterlimit:9.05000019;stroke-dasharray:none;stroke-opacity:1" />
  <circle
     style="fill:none;fill-opacity:1;stroke:#000000;stroke-width:0.35433072;stroke-linecap:butt;stroke-linejoin:miter;stroke-miterlimit:9.05000019;stroke-dasharray:none;stroke-opacity:1"
     id="path4769"
     cx="322.44095"
     cy="169.19292"
     r="12.401578" />
  <rect
     style="fill:none;fill-opacity:1;stroke:#000000;stroke-width:0.35433072;stroke-linecap:butt;stroke-linejoin:miter;stroke-miterlimit:9.05000019;stroke-dasharray:none;stroke-opacity:1"
     id="rect4773"
     width="1.7716535"
     height="1.7716535"
     x="321.55511"
     y="168.30708" />
  <circle
     style="fill:none;fill-opacity:1;stroke:#000000;stroke-width:0.35433072;stroke-linecap:butt;stroke-linejoin:miter;stroke-miterlimit:9.05000019;stroke-dasharray:none;stroke-opacity:1"
     id="path4777"
     cx="344.58661"
     cy="169.19292"
     r="1.7716535" />
  <circle
     style="fill:none;fill-opacity:1;stroke:#000000;stroke-width:0.35433072;stroke-linecap:butt;stroke-linejoin:miter;stroke-miterlimit:9.05000019;stroke-dasharray:none;stroke-opacity:1"
     id="path4779"
     cx="300.29529"
     cy="169.19292"
     r="1.7716535" />
</svg>
