<?xml version="1.0" encoding="UTF-8" standalone="no"?>
<svg
   xmlns:dc="http://purl.org/dc/elements/1.1/"
   xmlns:cc="http://creativecommons.org/ns#"
   xmlns:rdf="http://www.w3.org/1999/02/22-rdf-syntax-ns#"
   xmlns:svg="http://www.w3.org/2000/svg"
   xmlns="http://www.w3.org/2000/svg"
   xmlns:sodipodi="http://sodipodi.sourceforge.net/DTD/sodipodi-0.dtd"
   xmlns:inkscape="http://www.inkscape.org/namespaces/inkscape"
   version="1.1"
   id="svg2"
   viewBox="0 0 744.09448819 1052.3622047"
   height="297mm"
   width="210mm"
   sodipodi:docname="rock-crawler.inkscape.svg"
   inkscape:version="0.92.2 5c3e80d, 2017-08-06">
  <sodipodi:namedview
     pagecolor="#ffffff"
     bordercolor="#666666"
     borderopacity="1"
     objecttolerance="50"
     gridtolerance="10000"
     guidetolerance="10"
     inkscape:pageopacity="0"
     inkscape:pageshadow="2"
     inkscape:window-width="1920"
     inkscape:window-height="1128"
     id="namedview80"
     showgrid="true"
     inkscape:document-units="mm"
     inkscape:zoom="0.99999996"
     inkscape:cx="2628.9571"
     inkscape:cy="428.45812"
     inkscape:window-x="0"
     inkscape:window-y="1"
     inkscape:window-maximized="1"
     inkscape:current-layer="svg2"
     inkscape:snap-global="true"
     showguides="true"
     inkscape:guide-bbox="true"
     inkscape:measure-start="1765.04,221.102"
     inkscape:measure-end="1765.04,205.984">
    <inkscape:grid
       type="xygrid"
       id="grid4765"
       units="mm"
       spacingx="0.88582677"
       spacingy="0.88582677"
       empspacing="4"
       visible="true"
       snapvisiblegridlinesonly="true"
       dotted="false" />
    <inkscape:grid
       type="xygrid"
       id="grid913"
       spacingx="0.44291339"
       spacingy="0.44291339"
       empspacing="8"
       dotted="false"
       units="mm"
       visible="true" />
    <sodipodi:guide
       position="2682.2834,574.01576"
       orientation="0,1"
       id="guide1104"
       inkscape:locked="false" />
    <sodipodi:guide
       position="2832.874,519.98033"
       orientation="0,1"
       id="guide1192"
       inkscape:locked="false" />
    <sodipodi:guide
       position="2832.874,519.98033"
       orientation="1,0"
       id="guide1194"
       inkscape:locked="false" />
  </sodipodi:namedview>
  <defs
     id="defs4" />
  <metadata
     id="metadata7">
    <rdf:RDF>
      <cc:Work
         rdf:about="">
        <dc:format>image/svg+xml</dc:format>
        <dc:type
           rdf:resource="http://purl.org/dc/dcmitype/StillImage" />
        <dc:title />
      </cc:Work>
    </rdf:RDF>
  </metadata>
  <path
     style="fill:none;stroke:#000000;stroke-width:0.37795275;stroke-miterlimit:4;stroke-dasharray:none;stroke-opacity:1"
     d="M 1681.8906 591.49609 C 1665.1915 591.49601 1651.6542 605.03332 1651.6543 621.73242 C 1651.6671 630.02139 1655.0826 637.94156 1661.1016 643.64062 L 1661.1016 769.13477 L 1702.6777 769.13477 L 1702.6777 643.66602 C 1708.7038 637.9612 1712.1203 630.03051 1712.127 621.73242 C 1712.1271 605.03332 1698.5897 591.49601 1681.8906 591.49609 z M 1681.8906 614.17383 A 7.5590739 7.5590739 0 0 1 1689.4492 621.73242 A 7.5590739 7.5590739 0 0 1 1681.8906 629.29102 A 7.5590739 7.5590739 0 0 1 1674.3301 621.73242 A 7.5590739 7.5590739 0 0 1 1681.8906 614.17383 z M 1681.8906 669.92188 C 1683.9778 669.92199 1685.6698 671.61397 1685.6699 673.70117 C 1685.6698 675.78837 1683.9778 677.48035 1681.8906 677.48047 C 1679.8026 677.48141 1678.1095 675.78912 1678.1094 673.70117 C 1678.1095 671.61323 1679.8026 669.92094 1681.8906 669.92188 z M 1681.8906 688.81836 C 1683.9786 688.81848 1685.6709 690.51164 1685.6699 692.59961 C 1685.6698 694.68681 1683.9778 696.37879 1681.8906 696.37891 C 1679.8026 696.37984 1678.1095 694.68756 1678.1094 692.59961 C 1678.1084 690.51089 1679.8019 688.81742 1681.8906 688.81836 z M 1681.8906 703.9375 C 1683.9778 703.93762 1685.6698 705.6296 1685.6699 707.7168 C 1685.6698 709.804 1683.9778 711.49598 1681.8906 711.49609 C 1679.8026 711.49703 1678.1095 709.80474 1678.1094 707.7168 C 1678.1095 705.62885 1679.8026 703.93656 1681.8906 703.9375 z M 1681.8906 719.05469 C 1683.9778 719.0548 1685.6698 720.74678 1685.6699 722.83398 C 1685.6709 724.92195 1683.9786 726.61512 1681.8906 726.61523 C 1679.8019 726.61617 1678.1084 724.9227 1678.1094 722.83398 C 1678.1095 720.74604 1679.8027 719.05375 1681.8906 719.05469 z M 1681.8906 733.22852 C 1689.1958 733.22951 1695.1173 739.15185 1695.1172 746.45703 C 1695.1173 753.76222 1689.1958 759.68455 1681.8906 759.68555 C 1674.5846 759.68567 1668.662 753.763 1668.6621 746.45703 C 1668.662 739.15106 1674.5846 733.22839 1681.8906 733.22852 z "
     transform="scale(0.9375)"
     id="path953" />
  <path
     style="fill:#505050;fill-opacity:1;stroke:#000000;stroke-width:0.36319897;stroke-linecap:butt;stroke-linejoin:miter;stroke-miterlimit:9.05000019;stroke-dasharray:none;stroke-opacity:1"
     d="m 29.67994,107.35301 a 38.799103,38.799103 0 0 0 -38.79883,38.79882 38.799103,38.799103 0 0 0 0.01,0.17774 l -0.01,0 0,251.2207 0.004,0 0,42.51563 77.58984,0 0,-42.51563 0.004,0 0,-251.2207 -0.006,0 a 38.799103,38.799103 0 0 0 0.006,-0.17774 38.799103,38.799103 0 0 0 -38.79883,-38.79882 z m 0,33.48437 a 5.3149605,5.3149605 0 0 1 5.31641,5.31445 5.3149605,5.3149605 0 0 1 -5.31641,5.31446 5.3149605,5.3149605 0 0 1 -5.31445,-5.31446 5.3149605,5.3149605 0 0 1 5.31445,-5.31445 z M 3.2815,284.51707 l 52.79688,0 0,88.23047 -52.79688,0 0,-88.23047 z m -3.71875002,109.83789 a 3.3713012,3.3713012 0 0 1 3.37110002,3.37305 3.3713012,3.3713012 0 0 1 -3.37110002,3.37109 3.3713012,3.3713012 0 0 1 -3.37108998,-3.37109 3.3713012,3.3713012 0 0 1 3.37108998,-3.37305 z m 60.23633002,0 a 3.3713012,3.3713012 0 0 1 3.37109,3.37305 3.3713012,3.3713012 0 0 1 -3.37109,3.37109 3.3713012,3.3713012 0 0 1 -3.37109,-3.37109 3.3713012,3.3713012 0 0 1 3.37109,-3.37305 z m -30.11914,21.26172 a 6.9137697,6.9137697 0 0 1 6.91406,6.91406 6.9137697,6.9137697 0 0 1 -6.91406,6.91406 6.9137697,6.9137697 0 0 1 -6.91406,-6.91406 6.9137697,6.9137697 0 0 1 6.91406,-6.91406 z"
     id="rect4168"
     inkscape:connector-curvature="0" />
  <circle
     style="fill:none;fill-opacity:1;stroke:#000000;stroke-width:0.34401175;stroke-linecap:butt;stroke-linejoin:miter;stroke-miterlimit:9.05000019;stroke-dasharray:none;stroke-opacity:1"
     id="path5337"
     cx="147.04726"
     cy="379.13388"
     r="3.3713012" />
  <circle
     cy="379.13388"
     cx="207.28348"
     id="circle5341"
     style="fill:none;fill-opacity:1;stroke:#000000;stroke-width:0.34401175;stroke-linecap:butt;stroke-linejoin:miter;stroke-miterlimit:9.05000019;stroke-dasharray:none;stroke-opacity:1"
     r="3.3713012" />
  <circle
     style="fill:none;fill-opacity:1;stroke:#000000;stroke-width:0.34568849;stroke-linecap:butt;stroke-linejoin:miter;stroke-miterlimit:9.05000019;stroke-dasharray:none;stroke-opacity:1"
     id="path5347"
     cx="177.16534"
     cy="403.93701"
     r="6.9137697" />
  <rect
     style="fill:none;fill-opacity:1;stroke:#000000;stroke-width:0.36319897;stroke-linecap:butt;stroke-linejoin:miter;stroke-miterlimit:9.05000019;stroke-dasharray:none;stroke-opacity:1"
     id="rect5351"
     width="77.589554"
     height="59.87302"
     x="138.37057"
     y="361.59894" />
  <rect
     style="fill:none;fill-opacity:1;stroke:#000000;stroke-width:0.35181612;stroke-linecap:butt;stroke-linejoin:miter;stroke-miterlimit:9.05000019;stroke-dasharray:none;stroke-opacity:1"
     id="rect5361"
     width="60.238735"
     height="24.451334"
     x="147.04599"
     y="354.50662" />
  <rect
     style="fill:none;fill-opacity:1;stroke:#000000;stroke-width:0.35259745;stroke-linecap:butt;stroke-linejoin:miter;stroke-miterlimit:9.05000019;stroke-dasharray:none;stroke-opacity:1"
     id="rect5369"
     width="52.797009"
     height="88.23008"
     x="150.76685"
     y="265.92432" />
  <rect
     style="fill:none;fill-opacity:1;stroke:#000000;stroke-width:0.35433071;stroke-linecap:butt;stroke-linejoin:miter;stroke-miterlimit:9.05000019;stroke-dasharray:none;stroke-opacity:1"
     id="rect5371"
     width="77.598427"
     height="141.37796"
     x="138.36536"
     y="237.57956" />
  <circle
     style="fill:none;fill-opacity:1;stroke:#000000;stroke-width:0.35433071;stroke-linecap:butt;stroke-linejoin:miter;stroke-miterlimit:9.05000019;stroke-dasharray:none;stroke-opacity:1"
     id="path5373"
     cx="177.16547"
     cy="-237.40147"
     transform="scale(1,-1)"
     r="38.799213" />
  <circle
     id="path3773"
     cx="177.16536"
     cy="-237.40158"
     style="fill:none;stroke:#000000;stroke-width:0.35433072;stroke-miterlimit:4;stroke-dasharray:none;stroke-opacity:1"
     r="5.3149605"
     transform="scale(1,-1)" />
  <circle
     transform="scale(1,-1)"
     r="38.799103"
     cy="-127.55906"
     cx="177.16536"
     id="circle4614"
     style="fill:none;fill-opacity:1;stroke:#000000;stroke-width:0.35433071;stroke-linecap:butt;stroke-linejoin:miter;stroke-miterlimit:9.05000019;stroke-dasharray:none;stroke-opacity:1" />
  <circle
     transform="scale(1,-1)"
     r="5.3149605"
     style="fill:none;stroke:#000000;stroke-width:0.35433072;stroke-miterlimit:4;stroke-dasharray:none;stroke-opacity:1"
     cy="-127.55906"
     cx="177.16536"
     id="circle4616" />
  <rect
     y="127.73622"
     x="138.36613"
     height="109.48819"
     width="77.598427"
     id="rect4160"
     style="fill:none;fill-opacity:1;stroke:#000000;stroke-width:0.35433072;stroke-linecap:butt;stroke-linejoin:miter;stroke-miterlimit:9.05000019;stroke-dasharray:none;stroke-opacity:1" />
  <rect
     style="fill:#505050;fill-opacity:1;stroke:#000000;stroke-width:0.86862224;stroke-linecap:butt;stroke-linejoin:miter;stroke-miterlimit:9.05000019;stroke-dasharray:none;stroke-opacity:1"
     id="rect4194"
     width="261.33609"
     height="55.824291"
     x="-170.58554"
     y="611.38043"
     transform="matrix(0,-1,1,0,0,0)" />
  <rect
     style="fill:#505050;fill-opacity:1;stroke:#000000;stroke-width:0.44755715;stroke-linecap:butt;stroke-linejoin:miter;stroke-miterlimit:9.05000019;stroke-dasharray:none;stroke-opacity:1"
     id="rect4198"
     width="55.536697"
     height="118.25323"
     x="547.56207"
     y="-26.390491" />
  <path
     inkscape:connector-curvature="0"
     id="path4711"
     d="m -67.318788,117.10551 a 38.799103,38.799103 0 0 0 -38.798822,38.79882 38.799103,38.799103 0 0 0 0.01,0.17774 l -0.01,0 0,251.2207 0.004,0 0,42.51563 77.589832,0 0,-42.51563 0.004,0 0,-251.2207 -0.006,0 a 38.799103,38.799103 0 0 0 0.006,-0.17774 38.799103,38.799103 0 0 0 -38.79883,-38.79882 z m 0,33.48437 a 5.3149605,5.3149605 0 0 1 5.31641,5.31445 5.3149605,5.3149605 0 0 1 -5.31641,5.31446 5.3149605,5.3149605 0 0 1 -5.31445,-5.31446 5.3149605,5.3149605 0 0 1 5.31445,-5.31445 z m -26.39844,143.67969 52.79688,0 0,88.23047 -52.79688,0 0,-88.23047 z m -3.718745,109.83789 a 3.3713012,3.3713012 0 0 1 3.371095,3.37305 3.3713012,3.3713012 0 0 1 -3.371095,3.37109 3.3713012,3.3713012 0 0 1 -3.371087,-3.37109 3.3713012,3.3713012 0 0 1 3.371087,-3.37305 z m 60.236325,0 a 3.3713012,3.3713012 0 0 1 3.37109,3.37305 3.3713012,3.3713012 0 0 1 -3.37109,3.37109 3.3713012,3.3713012 0 0 1 -3.37109,-3.37109 3.3713012,3.3713012 0 0 1 3.37109,-3.37305 z m -30.11914,21.26172 a 6.9137697,6.9137697 0 0 1 6.91406,6.91406 6.9137697,6.9137697 0 0 1 -6.91406,6.91406 6.9137697,6.9137697 0 0 1 -6.91406,-6.91406 6.9137697,6.9137697 0 0 1 6.91406,-6.91406 z"
     style="fill:#505050;fill-opacity:1;stroke:#000000;stroke-width:0.36319897;stroke-linecap:butt;stroke-linejoin:miter;stroke-miterlimit:9.05000019;stroke-dasharray:none;stroke-opacity:1" />
  <rect
     style="fill:none;fill-opacity:1;stroke:#000000;stroke-width:0.35433071;stroke-linecap:butt;stroke-linejoin:miter;stroke-miterlimit:9.05000019;stroke-dasharray:none;stroke-opacity:1"
     id="rect4715"
     width="52.722343"
     height="13.745966"
     x="150.80418"
     y="251.78845" />
  <circle
     r="3.5440803"
     cy="372.04724"
     cx="292.32361"
     id="circle4717"
     style="fill:none;fill-opacity:1;stroke:#000000;stroke-width:0.34401175;stroke-linecap:butt;stroke-linejoin:miter;stroke-miterlimit:9.05000019;stroke-dasharray:none;stroke-opacity:1" />
  <circle
     r="3.5440965"
     style="fill:none;fill-opacity:1;stroke:#000000;stroke-width:0.34401175;stroke-linecap:butt;stroke-linejoin:miter;stroke-miterlimit:9.05000019;stroke-dasharray:none;stroke-opacity:1"
     id="circle4719"
     cx="352.55984"
     cy="372.04724" />
  <circle
     r="7.0873804"
     cy="396.85037"
     cx="322.44171"
     id="circle4721"
     style="fill:none;fill-opacity:1;stroke:#000000;stroke-width:0.34568849;stroke-linecap:butt;stroke-linejoin:miter;stroke-miterlimit:9.05000019;stroke-dasharray:none;stroke-opacity:1" />
  <rect
     y="354.33072"
     x="283.46457"
     height="60.23621"
     width="77.952751"
     id="rect4723"
     style="fill:none;fill-opacity:1;stroke:#000000;stroke-width:0.35433071;stroke-linecap:butt;stroke-linejoin:miter;stroke-miterlimit:9.05000019;stroke-dasharray:none;stroke-opacity:1" />
  <rect
     y="347.41998"
     x="292.32236"
     height="24.451334"
     width="60.238735"
     id="rect4725"
     style="fill:none;fill-opacity:1;stroke:#000000;stroke-width:0.35181612;stroke-linecap:butt;stroke-linejoin:miter;stroke-miterlimit:9.05000019;stroke-dasharray:none;stroke-opacity:1" />
  <rect
     y="258.66141"
     x="295.86615"
     height="88.582664"
     width="53.149605"
     id="rect4727"
     style="fill:none;fill-opacity:1;stroke:#000000;stroke-width:0.35259745;stroke-linecap:butt;stroke-linejoin:miter;stroke-miterlimit:9.05000019;stroke-dasharray:none;stroke-opacity:1" />
  <rect
     y="223.22835"
     x="283.46457"
     height="148.81889"
     width="77.952759"
     id="rect4729"
     style="fill:none;fill-opacity:1;stroke:#000000;stroke-width:0.35433072;stroke-linecap:butt;stroke-linejoin:miter;stroke-miterlimit:9.05000019;stroke-dasharray:none;stroke-opacity:1" />
  <circle
     transform="scale(1,-1)"
     r="5.3149605"
     style="fill:none;stroke:#000000;stroke-width:0.35433072;stroke-miterlimit:4;stroke-dasharray:none;stroke-opacity:1"
     cy="-230.31497"
     cx="322.44171"
     id="circle4731" />
  <rect
     y="244.48819"
     x="295.86615"
     height="14.173228"
     width="53.149597"
     id="rect4733"
     style="fill:none;fill-opacity:1;stroke:#000000;stroke-width:0.35433072;stroke-linecap:butt;stroke-linejoin:miter;stroke-miterlimit:9.05000019;stroke-dasharray:none;stroke-opacity:1" />
  <rect
     style="fill:none;fill-opacity:1;stroke:#000000;stroke-width:0.35433072;stroke-linecap:butt;stroke-linejoin:miter;stroke-miterlimit:9.05000019;stroke-dasharray:none;stroke-opacity:1"
     id="rect4735"
     width="53.149597"
     height="7.0866132"
     x="295.86615"
     y="223.22835" />
  <rect
     style="fill:none;fill-opacity:1;stroke:#000000;stroke-width:0.35433072;stroke-linecap:butt;stroke-linejoin:miter;stroke-miterlimit:9.05000019;stroke-dasharray:none;stroke-opacity:1"
     id="rect4741"
     width="10.629917"
     height="65.55117"
     x="379.13385"
     y="136.41736" />
  <rect
     style="fill:none;fill-opacity:1;stroke:#000000;stroke-width:0.35433072;stroke-linecap:butt;stroke-linejoin:miter;stroke-miterlimit:9.05000019;stroke-dasharray:none;stroke-opacity:1"
     id="rect4745"
     width="77.952751"
     height="65.551178"
     x="283.46457"
     y="136.41736" />
  <rect
     style="fill:none;fill-opacity:1;stroke:#000000;stroke-width:0.35433072;stroke-linecap:butt;stroke-linejoin:miter;stroke-miterlimit:9.05000019;stroke-dasharray:none;stroke-opacity:1"
     id="rect4747"
     width="53.149605"
     height="7.0866137"
     x="295.86612"
     y="201.96854" />
  <rect
     style="fill:none;fill-opacity:1;stroke:#000000;stroke-width:0.35433072;stroke-linecap:butt;stroke-linejoin:miter;stroke-miterlimit:9.05000019;stroke-dasharray:none;stroke-opacity:1"
     id="rect4749"
     width="53.149605"
     height="7.0866137"
     x="295.86612"
     y="129.33075" />
  <rect
     style="fill:none;fill-opacity:1;stroke:#000000;stroke-width:0.35433072;stroke-linecap:butt;stroke-linejoin:miter;stroke-miterlimit:9.05000019;stroke-dasharray:none;stroke-opacity:1"
     id="rect4755"
     width="77.952751"
     height="17.716536"
     x="283.46457"
     y="258.66147" />
  <rect
     style="fill:none;fill-opacity:1;stroke:#000000;stroke-width:0.35433072;stroke-linecap:butt;stroke-linejoin:miter;stroke-miterlimit:9.05000019;stroke-dasharray:none;stroke-opacity:1"
     id="rect4757"
     width="7.086607"
     height="38.976379"
     x="276.37796"
     y="248.03149" />
  <rect
     y="248.03149"
     x="361.41733"
     height="38.976379"
     width="7.0866098"
     id="rect4759"
     style="fill:none;fill-opacity:1;stroke:#000000;stroke-width:0.35433072;stroke-linecap:butt;stroke-linejoin:miter;stroke-miterlimit:9.05000019;stroke-dasharray:none;stroke-opacity:1" />
  <circle
     style="fill:none;fill-opacity:1;stroke:#000000;stroke-width:0.35433072;stroke-linecap:butt;stroke-linejoin:miter;stroke-miterlimit:9.05000019;stroke-dasharray:none;stroke-opacity:1"
     id="path4769"
     cx="322.44095"
     cy="169.19292"
     r="12.401578" />
  <rect
     style="fill:none;fill-opacity:1;stroke:#000000;stroke-width:0.35433072;stroke-linecap:butt;stroke-linejoin:miter;stroke-miterlimit:9.05000019;stroke-dasharray:none;stroke-opacity:1"
     id="rect4773"
     width="1.7716535"
     height="1.7716535"
     x="321.55511"
     y="168.30708" />
  <circle
     style="fill:none;fill-opacity:1;stroke:#000000;stroke-width:0.35433072;stroke-linecap:butt;stroke-linejoin:miter;stroke-miterlimit:9.05000019;stroke-dasharray:none;stroke-opacity:1"
     id="path4777"
     cx="344.58661"
     cy="169.19292"
     r="1.7716535" />
  <circle
     style="fill:none;fill-opacity:1;stroke:#000000;stroke-width:0.35433072;stroke-linecap:butt;stroke-linejoin:miter;stroke-miterlimit:9.05000019;stroke-dasharray:none;stroke-opacity:1"
     id="path4779"
     cx="300.29529"
     cy="169.19292"
     r="1.7716535" />
  <ellipse
     style="fill:none;stroke:#000000;stroke-width:0.35433072;stroke-miterlimit:4;stroke-dasharray:none;stroke-opacity:1"
     id="path860"
     cx="435.82678"
     cy="393.3071"
     rx="7.0866208"
     ry="7.086637" />
  <rect
     style="fill:none;stroke:#000000;stroke-width:0.35433072;stroke-miterlimit:4;stroke-dasharray:none;stroke-opacity:1"
     id="rect862"
     width="7.0866184"
     height="88.58268"
     x="450"
     y="386.22046" />
  <circle
     style="fill:none;stroke:#000000;stroke-width:0.35433072;stroke-miterlimit:4;stroke-dasharray:none;stroke-opacity:1"
     id="path866"
     cx="435.82678"
     cy="432.28345"
     r="10.629928" />
  <rect
     style="fill:none;stroke:#000000;stroke-width:0.35433072;stroke-miterlimit:4;stroke-dasharray:none;stroke-opacity:1"
     id="rect868"
     width="7.0866146"
     height="35.433071"
     x="336.61417"
     y="368.50394" />
  <rect
     style="fill:none;stroke:#000000;stroke-width:0.35433072;stroke-miterlimit:4;stroke-dasharray:none;stroke-opacity:1"
     id="rect870"
     width="7.0866151"
     height="111.6142"
     x="460.62994"
     y="363.18896" />
  <rect
     y="356.10236"
     x="418.11023"
     height="44.291386"
     width="7.0866289"
     id="rect874"
     style="fill:none;stroke:#000000;stroke-width:0.35433072;stroke-miterlimit:4;stroke-dasharray:none;stroke-opacity:1" />
  <circle
     style="fill:none;stroke:#000000;stroke-width:0.35433072;stroke-miterlimit:4;stroke-dasharray:none;stroke-opacity:1"
     id="path876"
     cx="402.16534"
     cy="359.64566"
     inkscape:transform-center-x="0.17578125"
     inkscape:transform-center-y="0.64453126"
     r="3.5433073" />
  <rect
     style="fill:none;stroke:#000000;stroke-width:0.35433072;stroke-miterlimit:4;stroke-dasharray:none;stroke-opacity:1"
     id="rect878"
     width="3.5433073"
     height="31.889763"
     x="407.48032"
     y="361.41733" />
  <rect
     style="fill:none;stroke:#000000;stroke-width:0.35433072;stroke-miterlimit:4;stroke-dasharray:none;stroke-opacity:1"
     id="rect880"
     width="33.661423"
     height="3.5432987"
     x="402.16534"
     y="350.78738" />
  <circle
     r="3.5433073"
     inkscape:transform-center-y="0.64453126"
     inkscape:transform-center-x="0.17578125"
     cy="359.64566"
     cx="469.48819"
     id="circle882"
     style="fill:none;stroke:#000000;stroke-width:0.35433072;stroke-miterlimit:4;stroke-dasharray:none;stroke-opacity:1" />
  <rect
     style="fill:none;stroke:#000000;stroke-width:0.35433072;stroke-miterlimit:4;stroke-dasharray:none;stroke-opacity:1"
     id="rect884"
     width="77.952766"
     height="3.5433013"
     x="396.8504"
     y="-350.78738"
     transform="scale(1,-1)" />
  <rect
     style="fill:none;stroke:#000000;stroke-width:0.35433072;stroke-miterlimit:4;stroke-dasharray:none;stroke-opacity:1"
     id="rect886"
     width="7.0866065"
     height="49.6063"
     x="474.80316"
     y="421.65353" />
  <rect
     style="fill:none;stroke:#000000;stroke-width:0.35433072;stroke-miterlimit:4;stroke-dasharray:none;stroke-opacity:1"
     id="rect872"
     width="3.5433073"
     height="67.322838"
     x="442.91339"
     y="333.07083" />
  <rect
     style="fill:none;stroke:#000000;stroke-width:0.35433072;stroke-miterlimit:4;stroke-dasharray:none;stroke-opacity:1"
     id="rect875"
     width="46.062992"
     height="81.496063"
     x="412.79529"
     y="251.57478" />
  <rect
     style="fill:none;stroke:#000000;stroke-width:0.35433072;stroke-miterlimit:4;stroke-dasharray:none;stroke-opacity:1"
     id="rect877"
     width="6.2007957"
     height="83.267715"
     x="387.10629"
     y="279.92123" />
  <rect
     style="fill:none;stroke:#000000;stroke-width:0.35433072;stroke-miterlimit:4;stroke-dasharray:none;stroke-opacity:1"
     id="rect879"
     width="70.866142"
     height="17.716536"
     x="400.39371"
     y="262.20471" />
  <rect
     style="fill:none;stroke:#000000;stroke-width:0.35433072;stroke-miterlimit:4;stroke-dasharray:none;stroke-opacity:1"
     id="rect881"
     width="79.724411"
     height="230.31496"
     x="395.96457"
     y="244.48817" />
  <rect
     style="fill:none;stroke:#000000;stroke-width:0.35433072;stroke-miterlimit:4;stroke-dasharray:none;stroke-opacity:1"
     id="rect883"
     width="10.629951"
     height="38.976357"
     x="385.33466"
     y="251.57478" />
  <rect
     y="251.57478"
     x="475.689"
     height="38.976357"
     width="10.629951"
     id="rect885"
     style="fill:none;stroke:#000000;stroke-width:0.35433072;stroke-miterlimit:4;stroke-dasharray:none;stroke-opacity:1" />
  <rect
     style="fill:none;stroke:#000000;stroke-width:0.35433072;stroke-miterlimit:4;stroke-dasharray:none;stroke-opacity:1"
     id="rect887"
     width="67.322815"
     height="180.70866"
     x="520.86615"
     y="294.09448" />
  <rect
     style="fill:none;stroke:#000000;stroke-width:0.35433072;stroke-miterlimit:4;stroke-dasharray:none;stroke-opacity:1"
     id="rect889"
     width="10.629922"
     height="14.173229"
     x="510.23621"
     y="403.93698" />
  <rect
     y="403.93701"
     x="588.18896"
     height="14.173229"
     width="10.629922"
     id="rect891"
     style="fill:none;stroke:#000000;stroke-width:0.35433072;stroke-miterlimit:4;stroke-dasharray:none;stroke-opacity:1" />
  <rect
     y="368.50394"
     x="510.23624"
     height="14.173229"
     width="10.629922"
     id="rect893"
     style="fill:none;stroke:#000000;stroke-width:0.35433072;stroke-miterlimit:4;stroke-dasharray:none;stroke-opacity:1" />
  <rect
     style="fill:none;stroke:#000000;stroke-width:0.35433072;stroke-miterlimit:4;stroke-dasharray:none;stroke-opacity:1"
     id="rect895"
     width="10.629922"
     height="14.173229"
     x="588.18896"
     y="368.50397" />
  <rect
     y="446.4567"
     x="510.23624"
     height="14.173229"
     width="10.629922"
     id="rect897"
     style="fill:none;stroke:#000000;stroke-width:0.35433072;stroke-miterlimit:4;stroke-dasharray:none;stroke-opacity:1" />
  <rect
     style="fill:none;stroke:#000000;stroke-width:0.35433072;stroke-miterlimit:4;stroke-dasharray:none;stroke-opacity:1"
     id="rect899"
     width="10.629922"
     height="14.173229"
     x="588.18896"
     y="446.45673" />
  <path
     sodipodi:type="star"
     style="fill:none;stroke:#000000;stroke-width:0.35433072;stroke-miterlimit:4;stroke-dasharray:none;stroke-opacity:1"
     id="path927"
     sodipodi:sides="6"
     sodipodi:cx="554.52753"
     sodipodi:cy="432.28345"
     sodipodi:r1="11.072849"
     sodipodi:r2="9.97293"
     sodipodi:arg1="1.5707929"
     sodipodi:arg2="2.0943917"
     inkscape:flatsided="true"
     inkscape:rounded="0"
     inkscape:randomized="0"
     d="m 554.52756,443.3563 -9.58938,-5.5364 -4e-5,-11.07284 9.58935,-5.53646 9.58939,5.53639 3e-5,11.07285 z"
     inkscape:transform-center-x="1.4489562e-06"
     inkscape:transform-center-y="-1.1295376e-06" />
  <text
     xml:space="preserve"
     style="font-style:normal;font-weight:normal;line-height:0%;font-family:sans-serif;letter-spacing:0px;word-spacing:0px;fill:#000000;fill-opacity:1;stroke:none;stroke-width:0.9375"
     x="302.69067"
     y="570.49829"
     id="text931"><tspan
       sodipodi:role="line"
       id="tspan929"
       x="302.69067"
       y="570.49829"
       style="font-size:15px;line-height:1.25;stroke-width:0.9375">wheel + as 30mm</tspan><tspan
       sodipodi:role="line"
       x="302.69067"
       y="589.24829"
       style="font-size:15px;line-height:1.25;stroke-width:0.9375"
       id="tspan933">gearbox width: 19mm</tspan><tspan
       sodipodi:role="line"
       x="302.69067"
       y="607.99829"
       style="font-size:15px;line-height:1.25;stroke-width:0.9375"
       id="tspan935">both wheel put: 79mm</tspan></text>
  <rect
     style="fill:none;stroke:#000000;stroke-width:0.35433072;stroke-miterlimit:4;stroke-dasharray:none;stroke-opacity:1"
     id="rect937"
     width="343.70087"
     height="42.519672"
     x="618.30707"
     y="414.56693" />
  <circle
     style="fill:none;stroke:#000000;stroke-width:0.35433072;stroke-miterlimit:4;stroke-dasharray:none;stroke-opacity:1"
     id="path939"
     cx="790.15747"
     cy="435.82678"
     r="14.173211" />
  <ellipse
     ry="5.3149538"
     rx="5.3149514"
     cy="435.82678"
     cx="630.70868"
     id="ellipse941"
     style="fill:none;stroke:#000000;stroke-width:0.35433072;stroke-miterlimit:4;stroke-dasharray:none;stroke-opacity:1" />
  <ellipse
     style="fill:none;stroke:#000000;stroke-width:0.35433072;stroke-miterlimit:4;stroke-dasharray:none;stroke-opacity:1"
     id="ellipse943"
     cx="949.60632"
     cy="435.82678"
     rx="5.3149514"
     ry="5.3149538" />
  <path
     inkscape:transform-center-y="-1.1295376e-06"
     inkscape:transform-center-x="1.4489562e-06"
     d="m 554.5276,326.42719 -9.58939,-5.53639 -4e-5,-11.07285 9.58935,-5.53646 9.58939,5.53639 4e-5,11.07285 z"
     inkscape:randomized="0"
     inkscape:rounded="0"
     inkscape:flatsided="true"
     sodipodi:arg2="2.0943917"
     sodipodi:arg1="1.5707929"
     sodipodi:r2="9.97293"
     sodipodi:r1="11.072849"
     sodipodi:cy="315.35433"
     sodipodi:cx="554.52756"
     sodipodi:sides="6"
     id="path945"
     style="fill:none;stroke:#000000;stroke-width:0.35433072;stroke-miterlimit:4;stroke-dasharray:none;stroke-opacity:1"
     sodipodi:type="star" />
  <rect
     style="fill:none;stroke:#000000;stroke-width:0.35433072;stroke-miterlimit:4;stroke-dasharray:none;stroke-opacity:1"
     id="rect957"
     width="67.32283"
     height="77.952759"
     x="520.86615"
     y="485.43307" />
  <rect
     style="fill:none;stroke:#000000;stroke-width:0.35433072;stroke-miterlimit:4;stroke-dasharray:none;stroke-opacity:1"
     id="rect961"
     width="14.173228"
     height="17.716536"
     x="547.44092"
     y="515.55121" />
  <ellipse
     style="fill:none;stroke:#000000;stroke-width:0.35433072;stroke-miterlimit:4;stroke-dasharray:none;stroke-opacity:1"
     id="path963"
     cx="517.32288"
     cy="453.54333"
     rx="3.5433071"
     ry="3.5433035" />
  <ellipse
     ry="3.5433035"
     rx="3.5433071"
     cy="411.02362"
     cx="517.32281"
     id="ellipse965"
     style="fill:none;stroke:#000000;stroke-width:0.35433072;stroke-miterlimit:4;stroke-dasharray:none;stroke-opacity:1" />
  <ellipse
     style="fill:none;stroke:#000000;stroke-width:0.35433072;stroke-miterlimit:4;stroke-dasharray:none;stroke-opacity:1"
     id="ellipse967"
     cx="517.32281"
     cy="375.59055"
     rx="3.5433071"
     ry="3.5433035" />
  <ellipse
     ry="3.5433035"
     rx="3.5433071"
     cy="375.59055"
     cx="591.7323"
     id="ellipse969"
     style="fill:none;stroke:#000000;stroke-width:0.35433072;stroke-miterlimit:4;stroke-dasharray:none;stroke-opacity:1" />
  <ellipse
     style="fill:none;stroke:#000000;stroke-width:0.35433072;stroke-miterlimit:4;stroke-dasharray:none;stroke-opacity:1"
     id="ellipse971"
     cx="591.7323"
     cy="411.02362"
     rx="3.5433071"
     ry="3.5433035" />
  <ellipse
     ry="3.5433035"
     rx="3.5433071"
     cy="453.5433"
     cx="591.7323"
     id="ellipse973"
     style="fill:none;stroke:#000000;stroke-width:0.35433072;stroke-miterlimit:4;stroke-dasharray:none;stroke-opacity:1" />
  <circle
     style="fill:none;stroke:#000000;stroke-width:0.35433072;stroke-miterlimit:4;stroke-dasharray:none;stroke-opacity:1"
     id="path915"
     cx="630.70868"
     cy="435.82678"
     r="14.173243" />
  <rect
     style="fill:none;stroke:#000000;stroke-width:0.35433072;stroke-miterlimit:4;stroke-dasharray:none;stroke-opacity:1"
     id="rect919"
     width="33.661377"
     height="7.0866156"
     x="597.04724"
     y="435.82678" />
  <circle
     style="fill:none;stroke:#000000;stroke-width:0.35433072;stroke-miterlimit:4;stroke-dasharray:none;stroke-opacity:1"
     id="path921"
     cx="618.30707"
     cy="435.82678"
     r="21.259844" />
  <circle
     r="21.25985"
     cy="481.88977"
     cx="630.70868"
     id="circle923"
     style="fill:none;stroke:#000000;stroke-width:0.35433072;stroke-miterlimit:4;stroke-dasharray:none;stroke-opacity:1" />
  <ellipse
     style="fill:none;stroke:#000000;stroke-width:0.35433072;stroke-miterlimit:4;stroke-dasharray:none;stroke-opacity:1"
     id="ellipse925"
     cx="630.70868"
     cy="481.88977"
     rx="5.3149514"
     ry="5.3149538" />
  <circle
     r="14.616156"
     cy="435.82678"
     cx="949.60632"
     id="circle933"
     style="fill:none;stroke:#000000;stroke-width:0.35433072;stroke-miterlimit:4;stroke-dasharray:none;stroke-opacity:1" />
  <rect
     y="435.82678"
     x="949.60632"
     height="7.0866156"
     width="33.661377"
     id="rect935"
     style="fill:none;stroke:#000000;stroke-width:0.35433072;stroke-miterlimit:4;stroke-dasharray:none;stroke-opacity:1" />
  <circle
     r="21.259844"
     cy="435.82678"
     cx="962.00787"
     id="circle937"
     style="fill:none;stroke:#000000;stroke-width:0.35433072;stroke-miterlimit:4;stroke-dasharray:none;stroke-opacity:1" />
  <circle
     style="fill:none;stroke:#000000;stroke-width:0.35433072;stroke-miterlimit:4;stroke-dasharray:none;stroke-opacity:1"
     id="path1591"
     cx="612.99213"
     cy="669.685"
     r="21.259802" />
  <circle
     style="fill:none;stroke:#000000;stroke-width:0.35433072;stroke-miterlimit:4;stroke-dasharray:none;stroke-opacity:1"
     id="path1593"
     cx="612.99213"
     cy="648.42517"
     r="10.629914" />
  <ellipse
     style="fill:none;stroke:#000000;stroke-width:0.35433072;stroke-miterlimit:4;stroke-dasharray:none;stroke-opacity:1"
     id="path1597"
     cx="612.99213"
     cy="719.29132"
     rx="3.5433106"
     ry="3.5433052" />
  <rect
     style="fill:none;stroke:#000000;stroke-width:0.35433072;stroke-miterlimit:4;stroke-dasharray:none;stroke-opacity:1"
     id="rect921"
     width="42.519684"
     height="80.787399"
     x="591.7323"
     y="610.15747" />
  <rect
     style="fill:none;stroke:#000000;stroke-width:0.35433072;stroke-miterlimit:4;stroke-dasharray:none;stroke-opacity:1"
     id="rect927"
     width="21.259863"
     height="124.01575"
     x="602.36218"
     y="659.05511" />
  <ellipse
     style="fill:none;stroke:#000000;stroke-width:0.35433072;stroke-miterlimit:4;stroke-dasharray:none;stroke-opacity:1"
     id="path932"
     cx="612.99213"
     cy="669.685"
     rx="3.5433035"
     ry="3.5433049" />
  <circle
     style="fill:none;stroke:#000000;stroke-width:0.35433072;stroke-miterlimit:4;stroke-dasharray:none;stroke-opacity:1"
     id="path936"
     cx="612.99213"
     cy="772.44092"
     r="5.3149624" />
  <circle
     style="fill:none;stroke:#000000;stroke-width:0.35433072;stroke-miterlimit:4;stroke-dasharray:none;stroke-opacity:1"
     id="path938"
     cx="790.15747"
     cy="471.25983"
     r="12.401567" />
  <ellipse
     ry="5.3149538"
     rx="5.3149514"
     cy="471.25986"
     cx="790.15747"
     id="ellipse945"
     style="fill:none;stroke:#000000;stroke-width:0.35433072;stroke-miterlimit:4;stroke-dasharray:none;stroke-opacity:1" />
  <circle
     style="fill:none;stroke:#000000;stroke-width:0.35433072;stroke-miterlimit:4;stroke-dasharray:none;stroke-opacity:1"
     id="circle947"
     cx="676.77167"
     cy="481.88977"
     r="21.25985" />
  <ellipse
     ry="5.3149538"
     rx="5.3149514"
     cy="481.88977"
     cx="676.77167"
     id="ellipse949"
     style="fill:none;stroke:#000000;stroke-width:0.35433072;stroke-miterlimit:4;stroke-dasharray:none;stroke-opacity:1" />
  <ellipse
     ry="5.3149538"
     rx="5.3149514"
     cy="471.25986"
     cx="818.50391"
     id="ellipse951"
     style="fill:none;stroke:#000000;stroke-width:0.35433072;stroke-miterlimit:4;stroke-dasharray:none;stroke-opacity:1" />
  <circle
     style="fill:none;stroke:#000000;stroke-width:0.35433072;stroke-miterlimit:4;stroke-dasharray:none;stroke-opacity:1"
     id="circle953"
     cx="818.50397"
     cy="471.25986"
     r="12.401567" />
  <path
     style="fill:none;stroke:#000000;stroke-width:0.35433072;stroke-miterlimit:4;stroke-dasharray:none;stroke-opacity:1"
     d="m 1091.3386,426.96856 a 21.25985,21.25985 0 0 0 -21.2604,21.26037 21.25985,21.25985 0 0 0 21.2604,21.26038 21.25985,21.25985 0 0 0 21.2604,-21.26038 21.25985,21.25985 0 0 0 -21.2604,-21.26037 z m 0,15.94482 a 5.3149514,5.3149538 0 0 1 5.3155,5.31555 5.3149514,5.3149538 0 0 1 -5.3155,5.31556 5.3149514,5.3149538 0 0 1 -5.3156,-5.31556 5.3149514,5.3149538 0 0 1 5.3156,-5.31555 z"
     id="circle955"
     inkscape:connector-curvature="0" />
  <rect
     style="fill:none;stroke:#000000;stroke-width:0.35433072;stroke-miterlimit:4;stroke-dasharray:none;stroke-opacity:1"
     id="rect969"
     width="318.89764"
     height="14.173221"
     x="630.70868"
     y="396.8504" />
  <circle
     style="fill:none;stroke:#000000;stroke-width:0.35433072;stroke-miterlimit:4;stroke-dasharray:none;stroke-opacity:1"
     id="circle995"
     cx="864.56696"
     cy="481.88977"
     r="21.25985" />
  <ellipse
     ry="5.3149538"
     rx="5.3149514"
     cy="481.88977"
     cx="864.56696"
     id="ellipse997"
     style="fill:none;stroke:#000000;stroke-width:0.35433072;stroke-miterlimit:4;stroke-dasharray:none;stroke-opacity:1" />
  <circle
     r="21.25985"
     cy="481.88977"
     cx="910.63"
     id="circle999"
     style="fill:none;stroke:#000000;stroke-width:0.35433072;stroke-miterlimit:4;stroke-dasharray:none;stroke-opacity:1" />
  <ellipse
     style="fill:none;stroke:#000000;stroke-width:0.35433072;stroke-miterlimit:4;stroke-dasharray:none;stroke-opacity:1"
     id="ellipse1001"
     cx="910.63"
     cy="481.88977"
     rx="5.3149514"
     ry="5.3149538" />
  <circle
     style="fill:none;stroke:#000000;stroke-width:0.35433072;stroke-miterlimit:4;stroke-dasharray:none;stroke-opacity:1"
     id="circle1003"
     cx="956.69305"
     cy="481.88977"
     r="21.25985" />
  <ellipse
     ry="5.3149538"
     rx="5.3149514"
     cy="481.88977"
     cx="956.69305"
     id="ellipse1005"
     style="fill:none;stroke:#000000;stroke-width:0.35433072;stroke-miterlimit:4;stroke-dasharray:none;stroke-opacity:1" />
  <path
     inkscape:connector-curvature="0"
     id="path1040"
     d="m 852.16625,599.26062 a 21.259844,21.259844 0 0 0 -21.2603,21.26037 21.259844,21.259844 0 0 0 21.2603,21.26038 h 343.70015 a 21.259844,21.259844 0 0 0 21.2603,-21.26038 21.259844,21.259844 0 0 0 -21.2603,-21.26037 z m 331.29835,6.6449 a 14.616156,14.616156 0 0 1 14.6173,14.61547 14.616156,14.616156 0 0 1 -14.6173,14.61548 14.616156,14.616156 0 0 1 -14.6155,-14.61548 14.616156,14.616156 0 0 1 14.6155,-14.61547 z m -318.89845,0.44128 a 14.173242,14.173242 0 0 1 14.1742,14.17419 14.173242,14.173242 0 0 1 -14.1742,14.17237 14.173242,14.173242 0 0 1 -14.1723,-14.17237 14.173242,14.173242 0 0 1 14.1723,-14.17419 z m 159.45015,0.002 a 14.173211,14.173211 0 0 1 14.1724,14.17236 14.173211,14.173211 0 0 1 -14.1724,14.17237 14.173211,14.173211 0 0 1 -14.1742,-14.17237 14.173211,14.173211 0 0 1 14.1742,-14.17236 z"
     style="fill:none;stroke:#000000;stroke-width:0.35433072;stroke-miterlimit:4;stroke-dasharray:none;stroke-opacity:1" />
  <circle
     r="21.259802"
     cy="719.29132"
     cx="1022.2441"
     id="circle1042"
     style="fill:none;stroke:#000000;stroke-width:0.35433072;stroke-miterlimit:4;stroke-dasharray:none;stroke-opacity:1" />
  <circle
     r="10.629914"
     cy="698.03149"
     cx="1022.2441"
     id="circle1044"
     style="fill:none;stroke:#000000;stroke-width:0.35433072;stroke-miterlimit:4;stroke-dasharray:none;stroke-opacity:1" />
  <rect
     style="fill:none;stroke:#000000;stroke-width:0.35433072;stroke-miterlimit:4;stroke-dasharray:none;stroke-opacity:1"
     id="rect945"
     width="42.519623"
     height="17.716509"
     x="1000.9843"
     y="740.55121" />
  <rect
     style="fill:none;stroke:#000000;stroke-width:0.35433072;stroke-miterlimit:4;stroke-dasharray:none;stroke-opacity:1"
     id="rect949"
     width="42.519688"
     height="17.716536"
     x="1000.9843"
     y="642.22443" />
  <ellipse
     ry="3.5433049"
     rx="3.5433035"
     cy="719.29132"
     cx="1022.2441"
     id="ellipse1052"
     style="fill:none;stroke:#000000;stroke-width:0.35433072;stroke-miterlimit:4;stroke-dasharray:none;stroke-opacity:1" />
  <path
     inkscape:connector-curvature="0"
     id="path946"
     d="m 1022.2456,804.92493 c 11.508,10e-6 23.015,-2.55862 30.1172,-7.67761 14.2043,-10.23798 -9e-4,-28.34752 14.1723,-42.52074 14.1733,-14.1732 127.5586,-14.1742 127.5586,-14.1742 11.7419,3e-4 21.2607,-9.5185 21.2604,-21.2604 3e-4,-11.7419 -9.5185,-21.2606 -21.2604,-21.2604 0,0 -127.5581,0 -134.6447,-7.0843 -7.0866,-7.0866 -3.5428,-10.6284 -7.0862,-14.1724 -3.5435,-3.544 -56.69308,-3.544 -60.23618,0 -3.54309,3.5441 3.8e-4,7.0858 -7.08618,14.1724 -7.08666,7.0866 -134.64666,7.0843 -134.64666,7.0843 -11.74191,-2e-4 -21.26062,9.5185 -21.26034,21.2604 -2.8e-4,11.7419 9.51843,21.2607 21.26034,21.2604 0,0 113.38538,6e-4 127.55859,14.1742 14.17322,14.17321 -0.0301,32.28279 14.17425,42.52074 7.10213,5.11898 18.61108,7.67761 30.11898,7.67761 z m 0,-13.87756 a 3.5433128,3.5433073 0 0 1 -3.5431,-3.54492 3.5433128,3.5433073 0 0 1 3.5431,-3.54309 3.5433128,3.5433073 0 0 1 3.5449,3.54309 3.5433128,3.5433073 0 0 1 -3.5449,3.54492 z m 21.2603,-12.40174 h -42.5189 v -80.61035 h 42.5189 z M 862.79528,733.90748 c -8.07244,6e-4 -14.61694,-6.543 -14.61731,-14.6155 3.7e-4,-8.0724 6.54487,-14.6161 14.61731,-14.6155 8.07178,4e-4 14.61516,6.5438 14.61553,14.6155 -3.7e-4,8.0718 -6.54375,14.6152 -14.61553,14.6155 z m 318.89832,-0.4413 c -7.8284,5e-4 -14.1747,-6.3458 -14.1742,-14.1742 5e-4,-7.8277 6.3465,-14.1729 14.1742,-14.1723 7.827,4e-4 14.1719,6.3453 14.1724,14.1723 5e-4,7.8277 -6.3447,14.1737 -14.1724,14.1742 z m -159.45,-40.7464 a 3.543307,3.543307 0 0 1 -3.5431,-3.5431 3.543307,3.543307 0 0 1 3.5431,-3.5431 3.543307,3.543307 0 0 1 3.5449,3.5431 3.543307,3.543307 0 0 1 -3.5449,3.5431 z"
     style="fill:none;stroke:#000000;stroke-width:0.35433072;stroke-miterlimit:4;stroke-dasharray:none;stroke-opacity:1" />
  <path
     style="fill:none;stroke:#000000;stroke-width:0.37795275;stroke-miterlimit:4;stroke-dasharray:none;stroke-opacity:1"
     d="M 1031.8105 891.96875 C 1027.6228 891.96875 1024.252 895.33964 1024.252 899.52734 L 1024.252 907.08594 L 918.42578 907.08594 C 914.23808 907.08594 910.86523 910.45878 910.86523 914.64648 L 910.86523 952.44141 C 910.86523 956.62911 914.23808 960 918.42578 960 L 1024.252 960 L 1024.252 967.55859 C 1024.252 971.7463 1027.6228 975.11719 1031.8105 975.11719 L 1145.1973 975.11719 C 1149.385 975.11719 1152.7559 971.7463 1152.7559 967.55859 L 1152.7559 960 L 1258.582 960 C 1262.7697 960 1266.1426 956.62911 1266.1426 952.44141 L 1266.1426 914.64648 C 1266.1426 910.45878 1262.7697 907.08594 1258.582 907.08594 L 1152.7559 907.08594 L 1152.7559 899.52734 C 1152.7559 895.33964 1149.385 891.96875 1145.1973 891.96875 L 1031.8105 891.96875 z M 1045.0391 910.86523 L 1131.9688 910.86523 L 1131.9688 956.2207 L 1045.0391 956.2207 L 1045.0391 910.86523 z M 924.09375 927.40234 A 6.1417017 6.1417836 0 0 1 930.23633 933.54297 A 6.1417017 6.1417836 0 0 1 924.09375 939.68555 A 6.1417017 6.1417836 0 0 1 917.95312 933.54297 A 6.1417017 6.1417836 0 0 1 924.09375 927.40234 z M 1252.9141 927.40234 A 6.1417017 6.1417836 0 0 1 1259.0547 933.54297 A 6.1417017 6.1417836 0 0 1 1252.9141 939.68555 A 6.1417017 6.1417836 0 0 1 1246.7715 933.54297 A 6.1417017 6.1417836 0 0 1 1252.9141 927.40234 z M 988.3457 927.875 A 5.6693024 5.6693024 0 0 1 994.01562 933.54297 A 5.6693024 5.6693024 0 0 1 988.3457 939.21289 A 5.6693024 5.6693024 0 0 1 982.67773 933.54297 A 5.6693024 5.6693024 0 0 1 988.3457 927.875 z M 1207.5586 927.875 A 5.6692774 5.6692774 0 0 1 1213.2285 933.54297 A 5.6692774 5.6692774 0 0 1 1207.5586 939.21289 A 5.6692774 5.6692774 0 0 1 1201.8906 933.54297 A 5.6692774 5.6692774 0 0 1 1207.5586 927.875 z M 1035.5898 929.76367 A 3.7795278 3.7795275 0 0 1 1039.3691 933.54297 A 3.7795278 3.7795275 0 0 1 1035.5898 937.32227 A 3.7795278 3.7795275 0 0 1 1031.8105 933.54297 A 3.7795278 3.7795275 0 0 1 1035.5898 929.76367 z M 1141.418 929.76367 A 3.7795212 3.7795275 0 0 1 1145.1973 933.54297 A 3.7795212 3.7795275 0 0 1 1141.418 937.32227 A 3.7795212 3.7795275 0 0 1 1137.6387 933.54297 A 3.7795212 3.7795275 0 0 1 1141.418 929.76367 z "
     transform="scale(0.9375)"
     id="rect970" />
  <path
     style="fill:none;stroke:#000000;stroke-width:0.37795275;stroke-miterlimit:4;stroke-dasharray:none;stroke-opacity:1"
     d="m 260.78711,1134.8027 v 81.2598 H 1402.2051 v -81.2598 z"
     transform="scale(0.9375)"
     id="path2922" />
  <path
     style="fill:none;stroke:#000000;stroke-width:0.37795275;stroke-miterlimit:4;stroke-dasharray:none;stroke-opacity:1"
     d="m 304.25195,1160.3145 h 30.23633 c 8.37543,0 15.11719,6.7437 15.11719,15.1191 0,8.3754 -6.74176,15.1172 -15.11719,15.1172 h -30.23633 c -8.37543,0 -15.11718,-6.7418 -15.11718,-15.1172 0,-8.3754 6.74175,-15.1191 15.11718,-15.1191 z"
     transform="scale(0.9375)"
     id="path2920" />
  <path
     style="fill:none;stroke:#000000;stroke-width:0.37795275;stroke-miterlimit:4;stroke-dasharray:none;stroke-opacity:1"
     d="m 389.29102,1160.3145 a 15.118113,15.118109 0 0 1 15.11914,15.1191 15.118113,15.118109 0 0 1 -15.11914,15.1172 15.118113,15.118109 0 0 1 -15.11719,-15.1172 15.118113,15.118109 0 0 1 15.11719,-15.1191 z"
     transform="scale(0.9375)"
     id="path2918" />
  <path
     style="fill:none;stroke:#000000;stroke-width:0.37795275;stroke-miterlimit:4;stroke-dasharray:none;stroke-opacity:1"
     d="m 444.09375,1160.3145 h 30.23633 c 8.37543,0 15.11914,6.7437 15.11914,15.1191 0,8.3754 -6.74371,15.1172 -15.11914,15.1172 h -30.23633 c -8.37543,0 -15.11719,-6.7418 -15.11719,-15.1172 0,-8.3754 6.74176,-15.1191 15.11719,-15.1191 z"
     transform="scale(0.9375)"
     id="path2916" />
  <path
     style="fill:none;stroke:#000000;stroke-width:0.37795275;stroke-miterlimit:4;stroke-dasharray:none;stroke-opacity:1"
     d="m 529.13477,1160.3145 a 15.118113,15.118109 0 0 1 15.11718,15.1191 15.118113,15.118109 0 0 1 -15.11718,15.1172 15.118113,15.118109 0 0 1 -15.11915,-15.1172 15.118113,15.118109 0 0 1 15.11915,-15.1191 z"
     transform="scale(0.9375)"
     id="path2914" />
  <path
     style="fill:none;stroke:#000000;stroke-width:0.37795275;stroke-miterlimit:4;stroke-dasharray:none;stroke-opacity:1"
     d="m 583.9375,1160.3145 h 30.23633 c 8.37543,0 15.11719,6.7437 15.11719,15.1191 0,8.3754 -6.74176,15.1172 -15.11719,15.1172 H 583.9375 c -8.37543,0 -15.11914,-6.7418 -15.11914,-15.1172 0,-8.3754 6.74371,-15.1191 15.11914,-15.1191 z"
     transform="scale(0.9375)"
     id="path2912" />
  <path
     style="fill:none;stroke:#000000;stroke-width:0.37795275;stroke-miterlimit:4;stroke-dasharray:none;stroke-opacity:1"
     d="m 668.97656,1160.3145 a 15.118113,15.118109 0 0 1 15.11719,15.1191 15.118113,15.118109 0 0 1 -15.11719,15.1172 15.118113,15.118109 0 0 1 -15.11914,-15.1172 15.118113,15.118109 0 0 1 15.11914,-15.1191 z"
     transform="scale(0.9375)"
     id="path2910" />
  <path
     style="fill:none;stroke:#000000;stroke-width:0.37795275;stroke-miterlimit:4;stroke-dasharray:none;stroke-opacity:1"
     d="m 723.7793,1160.3145 h 30.23632 c 8.37544,0 15.11915,6.7437 15.11915,15.1191 0,8.3754 -6.74371,15.1172 -15.11915,15.1172 H 723.7793 c -8.37544,0 -15.11719,-6.7418 -15.11719,-15.1172 0,-8.3754 6.74175,-15.1191 15.11719,-15.1191 z"
     transform="scale(0.9375)"
     id="path2908" />
  <path
     style="fill:none;stroke:#000000;stroke-width:0.37795275;stroke-miterlimit:4;stroke-dasharray:none;stroke-opacity:1"
     d="m 805.03906,1160.3145 a 15.118113,15.118109 0 0 1 15.11914,15.1191 15.118113,15.118109 0 0 1 -15.11914,15.1172 15.118113,15.118109 0 0 1 -15.11718,-15.1172 15.118113,15.118109 0 0 1 15.11718,-15.1191 z"
     transform="scale(0.9375)"
     id="path2906" />
  <path
     style="fill:none;stroke:#000000;stroke-width:0.37795275;stroke-miterlimit:4;stroke-dasharray:none;stroke-opacity:1"
     d="m 857.95312,1160.3145 a 15.118113,15.118109 0 0 1 15.11719,15.1191 15.118113,15.118109 0 0 1 -15.11719,15.1172 15.118113,15.118109 0 0 1 -15.11914,-15.1172 15.118113,15.118109 0 0 1 15.11914,-15.1191 z"
     transform="scale(0.9375)"
     id="path2904" />
  <path
     style="fill:none;stroke:#000000;stroke-width:0.37795275;stroke-miterlimit:4;stroke-dasharray:none;stroke-opacity:1"
     d="m 908.97656,1160.3145 h 30.23633 c 8.37543,0 15.11719,6.7437 15.11719,15.1191 0,8.3754 -6.74176,15.1172 -15.11719,15.1172 h -30.23633 c -8.37543,0 -15.11914,-6.7418 -15.11914,-15.1172 0,-8.3754 6.74371,-15.1191 15.11914,-15.1191 z"
     transform="scale(0.9375)"
     id="path2902" />
  <path
     style="fill:none;stroke:#000000;stroke-width:0.37795275;stroke-miterlimit:4;stroke-dasharray:none;stroke-opacity:1"
     d="m 994.01562,1160.3145 a 15.118113,15.118109 0 0 1 15.11918,15.1191 15.118113,15.118109 0 0 1 -15.11918,15.1172 15.118113,15.118109 0 0 1 -15.11718,-15.1172 15.118113,15.118109 0 0 1 15.11718,-15.1191 z"
     transform="scale(0.9375)"
     id="path2900" />
  <path
     style="fill:none;stroke:#000000;stroke-width:0.37795275;stroke-miterlimit:4;stroke-dasharray:none;stroke-opacity:1"
     d="m 1048.8184,1160.3145 h 30.2363 c 8.3754,0 15.1191,6.7437 15.1191,15.1191 0,8.3754 -6.7437,15.1172 -15.1191,15.1172 h -30.2363 c -8.3755,0 -15.1172,-6.7418 -15.1172,-15.1172 0,-8.3754 6.7417,-15.1191 15.1172,-15.1191 z"
     transform="scale(0.9375)"
     id="path2898" />
  <path
     style="fill:none;stroke:#000000;stroke-width:0.37795275;stroke-miterlimit:4;stroke-dasharray:none;stroke-opacity:1"
     d="m 1133.8594,1160.3145 a 15.118113,15.118109 0 0 1 15.1172,15.1191 15.118113,15.118109 0 0 1 -15.1172,15.1172 15.118113,15.118109 0 0 1 -15.1192,-15.1172 15.118113,15.118109 0 0 1 15.1192,-15.1191 z"
     transform="scale(0.9375)"
     id="path2896" />
  <path
     style="fill:none;stroke:#000000;stroke-width:0.37795275;stroke-miterlimit:4;stroke-dasharray:none;stroke-opacity:1"
     d="m 1188.6621,1160.3145 h 30.2363 c 8.3755,0 15.1172,6.7437 15.1172,15.1191 0,8.3754 -6.7417,15.1172 -15.1172,15.1172 h -30.2363 c -8.3754,0 -15.1191,-6.7418 -15.1191,-15.1172 0,-8.3754 6.7437,-15.1191 15.1191,-15.1191 z"
     transform="scale(0.9375)"
     id="path2894" />
  <path
     style="fill:none;stroke:#000000;stroke-width:0.37795275;stroke-miterlimit:4;stroke-dasharray:none;stroke-opacity:1"
     d="m 1273.7012,1160.3145 a 15.118113,15.118109 0 0 1 15.1172,15.1191 15.118113,15.118109 0 0 1 -15.1172,15.1172 15.118113,15.118109 0 0 1 -15.1192,-15.1172 15.118113,15.118109 0 0 1 15.1192,-15.1191 z"
     transform="scale(0.9375)"
     id="path2892" />
  <path
     style="fill:none;stroke:#000000;stroke-width:0.37795275;stroke-miterlimit:4;stroke-dasharray:none;stroke-opacity:1"
     d="m 1328.5039,1160.3145 h 30.2363 c 8.3755,0 15.1172,6.7437 15.1172,15.1191 0,8.3754 -6.7417,15.1172 -15.1172,15.1172 h -30.2363 c -8.3754,0 -15.1172,-6.7418 -15.1172,-15.1172 0,-8.3754 6.7418,-15.1191 15.1172,-15.1191 z"
     transform="scale(0.9375)"
     id="path2845" />
  <path
     style="fill:none;stroke:#000000;stroke-width:0.35433072;stroke-miterlimit:4;stroke-dasharray:none;stroke-opacity:1"
     d="m 1962.9921,1061.2205 v 76.1811 h 488.9776 v -76.1811 z m 26.5759,23.9173 h 28.3465 c 7.852,0 14.1724,6.3223 14.1724,14.1742 0,7.8519 -6.3204,14.1723 -14.1724,14.1723 h -28.3465 c -7.8518,0 -14.1742,-6.3204 -14.1742,-14.1723 0,-7.8519 6.3224,-14.1742 14.1742,-14.1742 z m 79.7242,0 a 14.173231,14.173227 0 0 1 14.1741,14.1742 14.173231,14.173227 0 0 1 -14.1741,14.1723 14.173231,14.173227 0 0 1 -14.1724,-14.1723 14.173231,14.173227 0 0 1 14.1724,-14.1742 z m 51.3775,0 h 28.3465 c 7.852,0 14.1743,6.3223 14.1743,14.1742 0,7.8519 -6.3223,14.1723 -14.1743,14.1723 h -28.3465 c -7.852,0 -14.1724,-6.3204 -14.1724,-14.1723 0,-7.8519 6.3204,-14.1742 14.1724,-14.1742 z m 79.7259,0 a 14.173231,14.173227 0 0 1 14.1724,14.1742 14.173231,14.173227 0 0 1 -14.1724,14.1723 14.173231,14.173227 0 0 1 -14.1741,-14.1723 14.173231,14.173227 0 0 1 14.1741,-14.1742 z m 51.3777,0 h 28.3465 c 7.8521,0 14.1724,6.3223 14.1724,14.1742 0,7.8519 -6.3203,14.1723 -14.1724,14.1723 h -28.3465 c -7.852,0 -14.1743,-6.3204 -14.1743,-14.1723 0,-7.8519 6.3223,-14.1742 14.1743,-14.1742 z m 79.724,0 a 14.173231,14.173227 0 0 1 14.1724,14.1742 14.173231,14.173227 0 0 1 -14.1724,14.1723 14.173231,14.173227 0 0 1 -14.1741,-14.1723 14.173231,14.173227 0 0 1 14.1741,-14.1742 z m 51.3776,0 h 28.3466 c 7.852,0 14.1723,6.3223 14.1723,14.1742 0,7.8519 -6.3203,14.1723 -14.1723,14.1723 h -28.3466 c -7.852,0 -14.1723,-6.3204 -14.1723,-14.1723 0,-7.8519 6.3203,-14.1742 14.1723,-14.1742 z"
     id="rect2940"
     inkscape:connector-curvature="0" />
  <path
     style="fill:none;stroke:#000000;stroke-width:0.35433072;stroke-miterlimit:4;stroke-dasharray:none;stroke-opacity:1"
     d="m 1580.316,780.41276 v 7.08618 h 10.6293 v 21.26034 h -10.6293 v 28.3484 h 10.6293 v 21.25857 h -10.6293 v 46.062 h 113.3845 v -46.062 h -10.6293 V 837.1059 h 10.6293 v -28.34653 l -10.6291,-9e-5 v -21.25985 h 10.6291 v -7.08667 z m 56.6895,8.85864 c 1.9575,-8.8e-4 3.5448,1.58562 3.5449,3.54309 -10e-5,1.95745 -1.5874,3.54397 -3.5449,3.54309 -1.9567,-10e-5 -3.5431,-1.58634 -3.5431,-3.54309 0,-1.95675 1.5864,-3.54297 3.5431,-3.54309 z m -21.2567,12.40174 h 42.5189 v 80.61033 h -42.5189 z m -21.2604,15.94486 c 2.9358,-2.8e-4 5.3159,2.37975 5.3155,5.31553 -6e-4,2.93503 -2.3805,5.31403 -5.3155,5.31365 -2.9351,3.8e-4 -5.3149,-2.37862 -5.3155,-5.31365 -3e-4,-2.93578 2.3796,-5.31581 5.3155,-5.31553 z m 85.0397,0 c 2.9359,-2.8e-4 5.3158,2.37975 5.3155,5.31553 -6e-4,2.93503 -2.3804,5.31403 -5.3155,5.31365 -2.9351,3.8e-4 -5.3149,-2.37853 -5.3156,-5.31365 -2e-4,-2.93588 2.3798,-5.31591 5.3156,-5.31553 z m -42.5208,69.97922 c 1.9575,-9.4e-4 3.5449,1.58559 3.545,3.54309 8e-4,1.95816 -1.5868,3.54581 -3.545,3.54487 -1.9575,-9e-5 -3.5439,-1.58746 -3.5431,-3.54487 1e-4,-1.95684 1.5863,-3.543 3.5431,-3.54309 z"
     id="path2966"
     inkscape:connector-curvature="0"
     sodipodi:nodetypes="ccccccccccccccccccccccccsccccccccccccccccccccc" />
  <path
     style="fill:none;stroke:#000000;stroke-width:0.37795275;stroke-miterlimit:4;stroke-dasharray:none;stroke-opacity:1"
     d="M 1870.8672 599.05469 L 1870.8672 678.42578 L 1859.5273 678.42578 L 1859.5273 693.54297 L 1870.8672 693.54297 L 1870.8672 716.2207 L 1859.5273 716.2207 L 1859.5273 731.33789 L 1870.8672 731.33789 L 1870.8672 761.57422 L 1859.5273 761.57422 L 1859.5273 776.69336 L 1870.8672 776.69336 L 1870.8672 791.81055 L 1942.6777 791.81055 L 1942.6777 776.69336 L 1954.0156 776.69336 L 1954.0156 761.57422 L 1942.6777 761.57422 L 1942.6777 731.33984 L 1954.0156 731.33984 L 1954.0156 716.2207 L 1942.6777 716.2207 L 1942.6777 693.54297 L 1954.0156 693.54297 L 1954.0156 678.42578 L 1942.6777 678.42578 L 1942.6777 599.05469 L 1870.8672 599.05469 z M 1906.7715 609.66016 L 1917.2266 615.69531 L 1917.2266 627.76953 L 1906.7715 633.80469 L 1896.3164 627.76953 L 1896.3164 615.69531 L 1906.7715 609.66016 z M 1867.0859 682.20508 C 1869.1739 682.20414 1870.8671 683.89643 1870.8672 685.98438 C 1870.8671 688.07232 1869.1739 689.76461 1867.0859 689.76367 C 1864.9987 689.76355 1863.3067 688.07157 1863.3066 685.98438 C 1863.3067 683.89718 1864.9987 682.2052 1867.0859 682.20508 z M 1946.457 682.20508 C 1948.5443 682.2052 1950.2362 683.89718 1950.2363 685.98438 C 1950.2362 688.07157 1948.5443 689.76355 1946.457 689.76367 C 1944.3698 689.76355 1942.6778 688.07157 1942.6777 685.98438 C 1942.6778 683.89718 1944.3698 682.2052 1946.457 682.20508 z M 1867.0859 720 C 1869.1739 719.99906 1870.8671 721.69135 1870.8672 723.7793 C 1870.8671 725.86724 1869.1739 727.55953 1867.0859 727.55859 C 1864.9987 727.55848 1863.3067 725.8665 1863.3066 723.7793 C 1863.3067 721.6921 1864.9987 720.00012 1867.0859 720 z M 1946.457 720 C 1948.5443 720.00012 1950.2362 721.6921 1950.2363 723.7793 C 1950.2362 725.8665 1948.5443 727.55848 1946.457 727.55859 C 1944.3698 727.55848 1942.6778 725.8665 1942.6777 723.7793 C 1942.6778 721.6921 1944.3698 720.00012 1946.457 720 z M 1906.7715 734.38477 L 1917.2266 740.41992 L 1917.2266 752.49219 L 1906.7715 758.5293 L 1896.3164 752.49219 L 1896.3164 740.41992 L 1906.7715 734.38477 z M 1867.0879 765.35547 C 1869.1751 765.35559 1870.8671 767.04757 1870.8672 769.13477 C 1870.8671 771.22195 1869.175 772.91395 1867.0879 772.91406 C 1865 772.915 1863.3067 771.22271 1863.3066 769.13477 C 1863.3067 767.04681 1864.9999 765.35453 1867.0879 765.35547 z M 1946.457 765.35547 C 1948.5443 765.35559 1950.2362 767.04757 1950.2363 769.13477 C 1950.2362 771.22195 1948.5442 772.91395 1946.457 772.91406 C 1944.3699 772.91395 1942.6778 771.22195 1942.6777 769.13477 C 1942.6778 767.04757 1944.3698 765.35559 1946.457 765.35547 z "
     transform="scale(0.9375)"
     id="path3091" />
  <path
     style="fill:none;stroke:#000000;stroke-width:0.37795275;stroke-miterlimit:4;stroke-dasharray:none;stroke-opacity:1"
     d="M 2118.4258 585.82812 C 2105.9011 585.82779 2095.7477 595.98116 2095.748 608.50586 C 2095.7477 621.03056 2105.9011 631.18392 2118.4258 631.18359 L 2594.6465 631.18359 C 2607.1712 631.18386 2617.3245 621.03053 2617.3242 608.50586 C 2617.3245 595.9812 2607.1712 585.82786 2594.6465 585.82812 L 2118.4258 585.82812 z M 2131.6543 600.94531 A 7.5590311 7.5590311 0 0 1 2139.2129 608.50391 A 7.5590311 7.5590311 0 0 1 2131.6543 616.0625 A 7.5590311 7.5590311 0 0 1 2124.0938 608.50391 A 7.5590311 7.5590311 0 0 1 2131.6543 600.94531 z M 2356.5352 600.94531 A 7.5590311 7.5590311 0 0 1 2364.0938 608.50391 A 7.5590311 7.5590311 0 0 1 2356.5352 616.0625 A 7.5590311 7.5590311 0 0 1 2348.9766 608.50391 A 7.5590311 7.5590311 0 0 1 2356.5352 600.94531 z M 2581.418 600.94531 A 7.5590311 7.5590311 0 0 1 2588.9766 608.50391 A 7.5590311 7.5590311 0 0 1 2581.418 616.0625 A 7.5590311 7.5590311 0 0 1 2573.8594 608.50391 A 7.5590311 7.5590311 0 0 1 2581.418 600.94531 z "
     transform="scale(0.9375)"
     id="rect3093" />
  <ellipse
     style="fill:none;stroke:#000000;stroke-width:0.35433072;stroke-miterlimit:4;stroke-dasharray:none;stroke-opacity:1"
     id="path3142"
     cx="1454.5276"
     cy="699.8031"
     rx="5.314961"
     ry="5.3149638" />
  <ellipse
     ry="5.3149638"
     rx="5.314961"
     cy="699.8031"
     cx="1507.6772"
     id="ellipse3144"
     style="fill:none;stroke:#000000;stroke-width:0.35433072;stroke-miterlimit:4;stroke-dasharray:none;stroke-opacity:1" />
  <path
     style="fill:none;stroke:#000000;stroke-width:0.35433072;stroke-miterlimit:4;stroke-dasharray:none;stroke-opacity:1"
     d="m 1431.4961,931.88977 v 109.84313 l 77.9527,-6e-4 V 931.88916 Z m 12.4017,5.31555 c 2.9358,-3e-4 5.3158,2.37974 5.3155,5.31555 3e-4,2.93581 -2.3797,5.31585 -5.3155,5.31555 -2.9359,3.5e-4 -5.3159,-2.3797 -5.3156,-5.31555 -3e-4,-2.93585 2.3797,-5.3159 5.3156,-5.31555 z m 53.15,0 c 2.9351,7e-4 5.314,2.38044 5.3137,5.31555 3e-4,2.93511 -2.3786,5.31485 -5.3137,5.31555 -2.9359,3.5e-4 -5.3159,-2.3797 -5.3156,-5.31555 -3e-4,-2.93585 2.3797,-5.3159 5.3156,-5.31555 z m -53.15,44.29138 c 2.9358,-3e-4 5.3158,2.37976 5.3155,5.31559 -7e-4,2.93509 -2.3804,5.314 -5.3155,5.3137 -2.9351,3.5e-4 -5.3149,-2.37857 -5.3156,-5.3137 -3e-4,-2.93587 2.3797,-5.31594 5.3156,-5.31559 z m 53.15,0 c 2.9351,7e-4 5.314,2.38046 5.3137,5.31559 -7e-4,2.93439 -2.3793,5.313 -5.3137,5.3137 -2.9351,3.5e-4 -5.3149,-2.37857 -5.3156,-5.3137 -3e-4,-2.93587 2.3797,-5.31594 5.3156,-5.31559 z m -53.15,44.2914 c 2.9358,-3e-4 5.3158,2.3797 5.3155,5.3155 -7e-4,2.9351 -2.3804,5.314 -5.3155,5.3137 -2.9351,4e-4 -5.3149,-2.3786 -5.3156,-5.3137 -3e-4,-2.9358 2.3798,-5.3159 5.3156,-5.3155 z m 53.15,0 c 2.9351,7e-4 5.314,2.3804 5.3137,5.3155 -7e-4,2.9344 -2.3793,5.313 -5.3137,5.3137 -2.9351,4e-4 -5.3149,-2.3786 -5.3156,-5.3137 -3e-4,-2.9358 2.3798,-5.3159 5.3156,-5.3155 z"
     id="ellipse3146"
     inkscape:connector-curvature="0"
     sodipodi:nodetypes="ccccccccccccccccccccccccccccccccccc" />
  <path
     style="fill:none;stroke:#000000;stroke-width:0.37795275;stroke-miterlimit:4;stroke-dasharray:none;stroke-opacity:1"
     d="m 1625.1973,994.01562 v 117.16598 l 83.1492,-5e-4 V 994.01513 Z m 13.2285,5.66993 c 3.1316,-3.4e-4 5.6703,2.53835 5.6699,5.66995 3e-4,3.1315 -2.5384,5.6702 -5.6699,5.6699 -3.1315,3e-4 -5.6702,-2.5384 -5.6699,-5.6699 -4e-4,-3.1316 2.5383,-5.67029 5.6699,-5.66995 z m 56.6933,0 c 3.1308,7.1e-4 5.6684,2.53915 5.668,5.66995 3e-4,3.1308 -2.5372,5.6692 -5.668,5.6699 -3.1315,3e-4 -5.6702,-2.5384 -5.6699,-5.6699 -4e-4,-3.1316 2.5383,-5.67029 5.6699,-5.66995 z m -42.5207,9.44845 h 28.3465 v 34.0156 h -28.3465 z m -14.1726,37.7957 c 3.1315,-3e-4 5.6702,2.5384 5.6699,5.6699 -7e-4,3.1308 -2.5391,5.6683 -5.6699,5.668 -3.1308,3e-4 -5.6692,-2.5372 -5.6699,-5.668 -3e-4,-3.1315 2.5384,-5.6702 5.6699,-5.6699 z m 56.6933,0 c 3.1308,7e-4 5.6683,2.5391 5.668,5.6699 -7e-4,3.1301 -2.5379,5.6673 -5.668,5.668 -3.1308,3e-4 -5.6692,-2.5372 -5.6699,-5.668 -3e-4,-3.1315 2.5384,-5.6702 5.6699,-5.6699 z m -42.5207,15.1157 28.3465,0 v 34.0176 l -28.3465,0 z m -14.1726,32.1284 c 3.1316,-3e-4 5.6703,2.5384 5.6699,5.67 -8e-4,3.1308 -2.5391,5.6682 -5.6699,5.6679 -3.1308,3e-4 -5.6691,-2.5371 -5.6699,-5.6679 -4e-4,-3.1316 2.5383,-5.6703 5.6699,-5.67 z m 56.6933,0 c 3.1308,7e-4 5.6684,2.5392 5.668,5.67 -8e-4,3.13 -2.538,5.6672 -5.668,5.6679 -3.1308,3e-4 -5.6691,-2.5371 -5.6699,-5.6679 -4e-4,-3.1316 2.5383,-5.6703 5.6699,-5.67 z"
     id="rect3156"
     inkscape:connector-curvature="0"
     sodipodi:nodetypes="ccccccccccccccccccccccccccccccccccccccccccccc"
     transform="scale(0.9375)" />
  <rect
     style="fill:none;stroke:#000000;stroke-width:0.35433072;stroke-miterlimit:4;stroke-dasharray:none;stroke-opacity:1"
     id="rect3172"
     width="81.496048"
     height="38.976376"
     x="1442.126"
     y="680.315"
     ry="4.4935591e-06" />
  <rect
     style="fill:none;stroke:#000000;stroke-width:0.35433072;stroke-miterlimit:4;stroke-dasharray:none;stroke-opacity:1"
     id="rect3174"
     width="81.496063"
     height="24.80315"
     x="1442.126"
     y="644.8819"
     ry="4.4935591e-06" />
  <path
     sodipodi:nodetypes="ccccccccccccccccccccccccccccccccccc"
     inkscape:connector-curvature="0"
     id="path3306"
     d="m 1699.0152,931.88914 v 109.84326 l 77.9527,-6e-4 V 931.88853 Z m 12.4017,5.31555 c 2.9358,-3e-4 5.3158,2.37974 5.3155,5.31555 3e-4,2.93581 -2.3797,5.31585 -5.3155,5.31555 -2.9359,3.5e-4 -5.3159,-2.3797 -5.3156,-5.31555 -3e-4,-2.93585 2.3797,-5.3159 5.3156,-5.31555 z m 53.15,0 c 2.9351,7e-4 5.314,2.38044 5.3137,5.31555 3e-4,2.93511 -2.3786,5.31485 -5.3137,5.31555 -2.9359,3.5e-4 -5.3159,-2.3797 -5.3156,-5.31555 -3e-4,-2.93585 2.3797,-5.3159 5.3156,-5.31555 z m -53.15,44.29138 c 2.9358,-3e-4 5.3158,2.37976 5.3155,5.31559 -7e-4,2.93509 -2.3804,5.314 -5.3155,5.3137 -2.9351,3.5e-4 -5.3149,-2.37857 -5.3156,-5.3137 -3e-4,-2.93587 2.3797,-5.31594 5.3156,-5.31559 z m 53.15,0 c 2.9351,7e-4 5.314,2.38046 5.3137,5.31559 -7e-4,2.93439 -2.3793,5.313 -5.3137,5.3137 -2.9351,3.5e-4 -5.3149,-2.37857 -5.3156,-5.3137 -3e-4,-2.93587 2.3797,-5.31594 5.3156,-5.31559 z m -53.15,44.29143 c 2.9358,-3e-4 5.3158,2.3797 5.3155,5.3156 -7e-4,2.9351 -2.3804,5.314 -5.3155,5.3137 -2.9351,4e-4 -5.3149,-2.3786 -5.3156,-5.3137 -3e-4,-2.9359 2.3798,-5.316 5.3156,-5.3156 z m 53.15,0 c 2.9351,7e-4 5.314,2.3804 5.3137,5.3156 -7e-4,2.9344 -2.3793,5.313 -5.3137,5.3137 -2.9351,4e-4 -5.3149,-2.3786 -5.3156,-5.3137 -3e-4,-2.9359 2.3798,-5.316 5.3156,-5.3156 z"
     style="fill:none;stroke:#000000;stroke-width:0.35433072;stroke-miterlimit:4;stroke-dasharray:none;stroke-opacity:1" />
  <path
     style="fill:none;stroke:#000000;stroke-width:0.37795275;stroke-miterlimit:4;stroke-dasharray:none;stroke-opacity:1"
     d="M 2299.8438 653.85742 L 2299.8438 663.30664 L 2131.6543 663.30664 C 2111.8237 663.30626 2095.7476 679.38219 2095.748 699.21289 C 2095.7487 719.04279 2111.8244 735.11761 2131.6543 735.11719 L 2299.8438 735.11719 L 2299.8438 786.14062 L 2413.2285 786.14062 L 2413.2285 735.11719 L 2581.418 735.11719 C 2601.2478 735.11761 2617.3237 719.04279 2617.3242 699.21289 C 2617.3246 679.38219 2601.2488 663.30619 2581.418 663.30664 L 2413.2285 663.30664 L 2413.2285 653.85742 L 2299.8438 653.85742 z M 2356.5352 659.52734 L 2363.082 663.30664 L 2363.082 670.86523 L 2356.5352 674.64453 L 2349.9902 670.86523 L 2349.9902 663.30664 L 2356.5352 659.52734 z M 2356.5352 676.53516 C 2369.0598 676.53483 2379.2132 686.68809 2379.2129 699.21289 C 2379.2009 707.30249 2374.8807 714.77325 2367.875 718.81836 L 2367.875 733.22852 L 2345.1973 733.22852 L 2345.1973 718.82617 C 2338.1892 714.77967 2333.8683 707.30529 2333.8594 699.21289 C 2333.8589 686.68889 2344.0112 676.53588 2356.5352 676.53516 z M 2131.6543 691.6543 A 7.559079 7.559079 0 0 1 2139.2129 699.21289 A 7.559079 7.559079 0 0 1 2131.6543 706.77148 A 7.559079 7.559079 0 0 1 2124.0938 699.21289 A 7.559079 7.559079 0 0 1 2131.6543 691.6543 z M 2581.418 691.6543 C 2585.5924 691.65456 2588.9763 695.0385 2588.9766 699.21289 C 2588.9763 703.38728 2585.5924 706.77122 2581.418 706.77148 C 2577.2428 706.77232 2573.8577 703.38806 2573.8574 699.21289 C 2573.8577 695.03772 2577.2428 691.65346 2581.418 691.6543 z M 2226.1426 693.54297 C 2229.2741 693.54256 2231.8128 696.08129 2231.8125 699.21289 C 2231.8118 702.34369 2229.2732 704.88125 2226.1426 704.88086 C 2223.0118 704.88125 2220.4734 702.34359 2220.4727 699.21289 C 2220.4723 696.08139 2223.011 693.54256 2226.1426 693.54297 z M 2282.8359 693.54297 C 2285.966 693.54372 2288.5032 696.08095 2288.5039 699.21094 C 2288.5042 702.34171 2285.9667 704.88011 2282.8359 704.88086 C 2279.7044 704.88123 2277.1657 702.3425 2277.166 699.21094 C 2277.1668 696.08016 2279.7052 693.5426 2282.8359 693.54297 z M 2311.1816 693.54297 C 2314.3131 693.54267 2316.852 696.08139 2316.8516 699.21289 C 2316.8508 702.34359 2314.3124 704.88125 2311.1816 704.88086 C 2308.0508 704.88125 2305.5125 702.34369 2305.5117 699.21289 C 2305.5114 696.08129 2308.0501 693.54256 2311.1816 693.54297 z M 2401.8906 693.54297 C 2405.0221 693.54267 2407.5609 696.08139 2407.5605 699.21289 C 2407.5598 702.34359 2405.0215 704.88125 2401.8906 704.88086 C 2398.7599 704.88125 2396.2214 702.34369 2396.2207 699.21289 C 2396.2204 696.08129 2398.7592 693.54256 2401.8906 693.54297 z M 2430.2363 693.54297 C 2433.3671 693.5426 2435.9056 696.08015 2435.9062 699.21094 C 2435.9066 702.34251 2433.3678 704.88123 2430.2363 704.88086 C 2427.1056 704.88011 2424.568 702.34172 2424.5684 699.21094 C 2424.5691 696.08094 2427.1063 693.54372 2430.2363 693.54297 z M 2486.9297 693.54297 C 2490.0612 693.54256 2492.5999 696.08139 2492.5996 699.21289 C 2492.5989 702.34359 2490.0604 704.88125 2486.9297 704.88086 C 2483.7989 704.88125 2481.2605 702.34369 2481.2598 699.21289 C 2481.2594 696.08129 2483.7981 693.54256 2486.9297 693.54297 z M 2356.5352 768.1875 C 2358.6238 768.18654 2360.3174 769.88011 2360.3164 771.96875 C 2360.3163 774.05664 2358.6232 775.74911 2356.5352 775.74805 C 2354.448 775.74794 2352.756 774.056 2352.7559 771.96875 C 2352.7559 769.88075 2354.4473 768.18761 2356.5352 768.1875 z "
     transform="scale(0.9375)"
     id="path3318" />
  <rect
     style="fill:none;stroke:#000000;stroke-width:0.35433072;stroke-miterlimit:4;stroke-dasharray:none;stroke-opacity:1"
     id="rect1049"
     width="10.629874"
     height="113.38583"
     x="2643.3071"
     y="457.08658"
     ry="4.4935591e-06" />
  <path
     style="fill:none;stroke:#000000;stroke-width:0.37795275;stroke-miterlimit:4;stroke-dasharray:none;stroke-opacity:1"
     d="M 3021.7324 505.51172 C 2991.7906 505.52832 2966.0866 526.82231 2960.5 556.23828 L 2784.8672 657.63867 L 2777.9531 657.63867 L 2777.9531 729.44922 L 2785.7793 758.6543 L 2800.3809 754.74219 L 2809.1836 787.59961 L 2842.041 778.79492 L 2833.2363 745.9375 L 2851.4922 741.04688 L 2860.2949 773.9043 L 2893.1523 765.09961 L 2884.3477 732.24414 L 2894.7754 729.44922 L 2895.1172 729.44922 L 2895.1172 729.35742 L 2898.9512 728.33008 L 2895.1172 714.02344 L 2895.1172 687.81641 L 3001.0801 626.63867 C 3007.7119 628.99465 3014.6946 630.21105 3021.7324 630.23633 C 3056.1742 630.2359 3084.0943 602.31485 3084.0938 567.87305 C 3084.0933 533.43201 3056.1734 505.51215 3021.7324 505.51172 z M 3021.7324 552.75586 C 3030.0812 552.75635 3036.8491 559.52426 3036.8496 567.87305 C 3036.8502 576.2226 3030.082 582.9917 3021.7324 582.99219 C 3013.3821 582.99275 3006.6127 576.22334 3006.6133 567.87305 C 3006.6138 559.52352 3013.3829 552.7553 3021.7324 552.75586 z M 2940.4727 609.44922 C 2943.6035 609.44888 2946.1419 611.9864 2946.1426 615.11719 C 2946.143 618.24874 2943.6042 620.78745 2940.4727 620.78711 C 2937.3411 620.7875 2934.8023 618.24878 2934.8027 615.11719 C 2934.8034 611.98636 2937.3419 609.44883 2940.4727 609.44922 z M 2866.7715 651.96875 C 2869.903 651.96841 2872.4418 654.50712 2872.4414 657.63867 C 2872.4407 660.76946 2869.9023 663.30698 2866.7715 663.30664 C 2863.6407 663.30698 2861.1023 660.76946 2861.1016 657.63867 C 2861.1012 654.50712 2863.64 651.96841 2866.7715 651.96875 z M 2827.0859 665.19727 C 2835.4355 665.19667 2842.2046 671.96489 2842.2051 680.31445 C 2842.2057 688.66478 2835.4362 695.43419 2827.0859 695.43359 C 2818.7364 695.43303 2811.9682 688.66396 2811.9688 680.31445 C 2811.9692 671.96571 2818.7372 665.19783 2827.0859 665.19727 z M 2872.5391 747.41016 A 5.6692596 5.6692596 0 0 1 2877.7988 751.60547 A 5.6692596 5.6692596 0 0 1 2873.7891 758.55078 A 5.6692596 5.6692596 0 0 1 2866.8457 754.54102 A 5.6692596 5.6692596 0 0 1 2870.8555 747.59766 A 5.6692596 5.6692596 0 0 1 2872.5391 747.41016 z M 2821.4277 761.10547 A 5.6692596 5.6692596 0 0 1 2826.6875 765.30078 A 5.6692596 5.6692596 0 0 1 2822.6777 772.24609 A 5.6692596 5.6692596 0 0 1 2815.7363 768.23633 A 5.6692596 5.6692596 0 0 1 2819.7441 761.29297 A 5.6692596 5.6692596 0 0 1 2821.4277 761.10547 z "
     id="path1055"
     transform="scale(0.9375)" />
  <path
     style="fill:none;stroke:#000000;stroke-width:0.37795275;stroke-miterlimit:4;stroke-dasharray:none;stroke-opacity:1"
     d="M 2759.0547 544.25195 L 2759.0547 555.58984 L 2751.4961 555.58984 L 2751.4961 597.16602 L 2759.0547 597.16602 L 2759.0547 608.50391 L 2781.7324 608.50391 L 2781.7324 597.16602 L 2789.291 597.16602 L 2789.291 555.58984 L 2781.7324 555.58984 L 2781.7324 544.25195 L 2759.0547 544.25195 z M 2765.9062 555.375 L 2774.8828 555.375 L 2779.3691 563.15039 L 2774.8809 570.92383 L 2765.9062 570.92383 L 2761.418 563.14844 L 2765.9062 555.375 z M 2765.9062 581.83203 L 2774.8828 581.83203 L 2779.3691 589.60547 L 2774.8809 597.38086 L 2765.9062 597.38086 L 2761.418 589.60547 L 2765.9062 581.83203 z "
     transform="scale(0.9375)"
     id="rect1069" />
  <path
     style="fill:none;stroke:#000000;stroke-width:0.35433072;stroke-miterlimit:4;stroke-dasharray:none;stroke-opacity:1"
     d="m 2606.7981,618.85492 38.0906,65.9747 242.4199,-139.9612 -38.0905,-65.97471 z m 36.509,6.53878 a 14.173227,14.173231 60 0 1 19.3608,5.18902 14.173227,14.173231 60 0 1 -5.1875,19.35982 14.173227,14.173231 60 0 1 -19.3614,-5.18655 14.173227,14.173231 60 0 1 5.1881,-19.36229 z m 44.4944,-25.68882 24.5488,-14.17326 c 6.8001,-3.92607 15.4347,-1.61101 19.3607,5.18902 3.926,6.79995 1.6127,15.43376 -5.1875,19.35982 l -24.5488,14.17326 c -6.7999,3.92597 -15.4355,1.61344 -19.3614,-5.1865 -3.926,-6.80003 -1.6118,-15.43637 5.1882,-19.36234 z m 69.043,-39.86203 a 14.173227,14.173231 60 0 1 19.3607,5.18903 14.173227,14.173231 60 0 1 -5.1874,19.35981 14.173227,14.173231 60 0 1 -19.3614,-5.18655 14.173227,14.173231 60 0 1 5.1881,-19.36229 z m 44.4943,-25.68881 24.5489,-14.17327 c 6.8,-3.92601 15.4347,-1.61101 19.3607,5.18903 3.9259,6.79994 1.6126,15.4338 -5.1875,19.35981 l -24.5488,14.17327 c -6.8,3.92602 -15.4338,1.6125 -19.3598,-5.18744 -3.926,-6.80004 -1.6135,-15.43539 5.1865,-19.3614 z"
     id="path1091"
     inkscape:connector-curvature="0" />
  <path
     style="fill:none;stroke:#000000;stroke-width:0.35433072;stroke-miterlimit:4;stroke-dasharray:none;stroke-opacity:1"
     d="m 2544.0956,581.10238 v 67.32238 a 17.716521,17.716521 0 0 0 17.7154,17.71729 17.716521,17.716521 0 0 0 17.7174,-17.71729 v -67.32238 h -7.0862 v 10.62927 h -21.2605 v -10.62927 z m 17.7154,60.2362 a 7.0866442,7.0866442 0 0 1 7.0881,7.08618 7.0866442,7.0866442 0 0 1 -7.0881,7.08802 7.0866442,7.0866442 0 0 1 -7.0862,-7.08802 7.0866442,7.0866442 0 0 1 7.0862,-7.08618 z"
     id="rect1128"
     inkscape:connector-curvature="0" />
  <path
     sodipodi:nodetypes="ccccccccccccccccccccccccccccccccccccccccccccc"
     inkscape:connector-curvature="0"
     id="path1170"
     d="m 1608.6614,931.88977 v 109.84313 l 77.9524,-5e-4 V 931.88931 Z m 12.4017,5.31555 c 2.9359,-3.1e-4 5.3159,2.37971 5.3156,5.31558 2e-4,2.93578 -2.3798,5.31582 -5.3156,5.31553 -2.9357,2.9e-4 -5.3158,-2.37975 -5.3155,-5.31553 -4e-4,-2.93587 2.3797,-5.31589 5.3155,-5.31558 z m 53.15,0 c 2.9351,6.7e-4 5.3141,2.38046 5.3138,5.31558 2e-4,2.93513 -2.3787,5.31488 -5.3138,5.31553 -2.9358,2.9e-4 -5.3158,-2.37975 -5.3155,-5.31553 -4e-4,-2.93587 2.3796,-5.31589 5.3155,-5.31558 z m -39.8632,8.85793 h 26.5749 v 31.88962 h -26.5749 z m -13.2868,35.43347 c 2.9358,-2.9e-4 5.3158,2.37975 5.3156,5.31553 -7e-4,2.93512 -2.3804,5.31403 -5.3156,5.31375 -2.9351,2.8e-4 -5.3148,-2.37863 -5.3155,-5.31375 -3e-4,-2.93578 2.3798,-5.31582 5.3155,-5.31553 z m 53.15,0 c 2.9351,6.5e-4 5.314,2.3804 5.3138,5.31553 -7e-4,2.93447 -2.3793,5.31309 -5.3138,5.31375 -2.9351,2.8e-4 -5.3149,-2.37863 -5.3155,-5.31375 -3e-4,-2.93578 2.3797,-5.31582 5.3155,-5.31553 z m -39.8632,14.17096 h 26.5749 v 31.89152 h -26.5749 z m -13.2868,30.12042 c 2.9359,-3e-4 5.3159,2.3797 5.3156,5.3156 -8e-4,2.9351 -2.3804,5.3139 -5.3156,5.3136 -2.9351,3e-4 -5.3147,-2.3785 -5.3155,-5.3136 -4e-4,-2.9359 2.3797,-5.3159 5.3155,-5.3156 z m 53.15,0 c 2.9351,6e-4 5.3141,2.3805 5.3138,5.3156 -8e-4,2.9344 -2.3794,5.313 -5.3138,5.3136 -2.9351,3e-4 -5.3148,-2.3785 -5.3155,-5.3136 -4e-4,-2.9359 2.3796,-5.3159 5.3155,-5.3156 z"
     style="fill:none;stroke:#000000;stroke-width:0.35433072;stroke-miterlimit:4;stroke-dasharray:none;stroke-opacity:1" />
  <path
     sodipodi:nodetypes="ccccccccccccccccccccccccccccccccccccccccccccc"
     inkscape:connector-curvature="0"
     id="path1172"
     d="m 1785.8268,931.88977 v 109.84313 l 77.9523,-5e-4 V 931.88931 Z m 12.4017,5.31556 c 2.9359,-3.2e-4 5.3159,2.3797 5.3155,5.31557 3e-4,2.93579 -2.3797,5.31582 -5.3155,5.31554 -2.9358,2.8e-4 -5.3158,-2.37975 -5.3155,-5.31554 -4e-4,-2.93587 2.3796,-5.31589 5.3155,-5.31557 z m 53.15,0 c 2.9351,6.6e-4 5.3141,2.38045 5.3137,5.31557 3e-4,2.93513 -2.3786,5.31488 -5.3137,5.31554 -2.9358,2.8e-4 -5.3159,-2.37975 -5.3156,-5.31554 -4e-4,-2.93587 2.3797,-5.31589 5.3156,-5.31557 z m -39.8632,8.85792 h 26.5748 v 31.88962 h -26.5748 z m -13.2868,35.43347 c 2.9358,-2.8e-4 5.3158,2.37975 5.3155,5.31553 -6e-4,2.93512 -2.3804,5.31403 -5.3155,5.31375 -2.9351,2.8e-4 -5.3149,-2.37863 -5.3155,-5.31375 -3e-4,-2.93578 2.3797,-5.31581 5.3155,-5.31553 z m 53.15,0 c 2.9351,6.5e-4 5.314,2.3804 5.3137,5.31553 -7e-4,2.93447 -2.3793,5.31309 -5.3137,5.31375 -2.9352,2.8e-4 -5.3149,-2.37863 -5.3156,-5.31375 -3e-4,-2.93578 2.3798,-5.31581 5.3156,-5.31553 z m -39.8632,14.17097 h 26.5748 v 31.89151 h -26.5748 z m -13.2868,30.12041 c 2.9359,-3e-4 5.3159,2.3797 5.3155,5.3156 -7e-4,2.9351 -2.3804,5.3139 -5.3155,5.3136 -2.9351,3e-4 -5.3148,-2.3785 -5.3155,-5.3136 -4e-4,-2.9359 2.3796,-5.3159 5.3155,-5.3156 z m 53.15,0 c 2.9351,6e-4 5.3141,2.3805 5.3137,5.3156 -7e-4,2.9344 -2.3794,5.313 -5.3137,5.3136 -2.9352,3e-4 -5.3148,-2.3785 -5.3156,-5.3136 -4e-4,-2.9359 2.3797,-5.3159 5.3156,-5.3156 z"
     style="fill:none;stroke:#000000;stroke-width:0.35433072;stroke-miterlimit:4;stroke-dasharray:none;stroke-opacity:1" />
  <path
     style="fill:none;stroke:#000000;stroke-width:0.35433072;stroke-miterlimit:4;stroke-dasharray:none;stroke-opacity:1"
     d="M 1870.8657,931.88989 V 1041.733 l 77.9524,-5e-4 V 931.88943 Z m 12.4017,5.31555 c 2.9359,-3.1e-4 5.3159,2.37971 5.3156,5.31558 2e-4,2.93578 -2.3798,5.31582 -5.3156,5.31553 -2.9357,2.9e-4 -5.3158,-2.37975 -5.3155,-5.31553 -4e-4,-2.93587 2.3797,-5.31589 5.3155,-5.31558 z m 53.15,0 c 2.9351,6.7e-4 5.3141,2.38046 5.3138,5.31558 2e-4,2.93513 -2.3787,5.31488 -5.3138,5.31553 -2.9358,2.9e-4 -5.3158,-2.37975 -5.3155,-5.31553 -4e-4,-2.93587 2.3796,-5.31589 5.3155,-5.31558 z m -39.8632,8.85793 h 26.5749 v 31.88962 h -26.5749 z m -13.2868,35.43347 c 2.9358,-2.9e-4 5.3158,2.37975 5.3156,5.31553 -7e-4,2.93512 -2.3804,5.31403 -5.3156,5.31375 -2.9351,2.8e-4 -5.3148,-2.37863 -5.3155,-5.31375 -3e-4,-2.93578 2.3798,-5.31582 5.3155,-5.31553 z m 53.15,0 c 2.9351,6.5e-4 5.314,2.3804 5.3138,5.31553 -7e-4,2.93447 -2.3793,5.31309 -5.3138,5.31375 -2.9351,2.8e-4 -5.3149,-2.37863 -5.3155,-5.31375 -3e-4,-2.93578 2.3797,-5.31582 5.3155,-5.31553 z m -39.8632,14.17096 h 26.5749 v 31.8915 h -26.5749 z m -13.2868,30.1204 c 2.9359,-3e-4 5.3159,2.3797 5.3156,5.3156 -8e-4,2.9351 -2.3804,5.3139 -5.3156,5.3136 -2.9351,3e-4 -5.3147,-2.3785 -5.3155,-5.3136 -4e-4,-2.9359 2.3797,-5.3159 5.3155,-5.3156 z m 53.15,0 c 2.9351,6e-4 5.3141,2.3805 5.3138,5.3156 -8e-4,2.9344 -2.3794,5.313 -5.3138,5.3136 -2.9351,3e-4 -5.3148,-2.3785 -5.3155,-5.3136 -4e-4,-2.9359 2.3796,-5.3159 5.3155,-5.3156 z"
     id="path1174"
     inkscape:connector-curvature="0"
     sodipodi:nodetypes="ccccccccccccccccccccccccccccccccccccccccccccc" />
  <path
     sodipodi:nodetypes="cccccccccccccccccsc"
     inkscape:connector-curvature="0"
     id="path1176"
     d="m 1502.3622,853.05039 v 24.80354 h 77.9533 v -24.80354 l -25.689,-10e-4 v 10.6312 l -26.5748,10e-4 v -10.631 z m 12.4017,8.8587 c 2.9359,-4e-4 5.3159,2.3797 5.3156,5.31554 -7e-4,2.9352 -2.3805,5.3141 -5.3156,5.3138 -2.9351,3e-4 -5.3148,-2.3787 -5.3155,-5.3138 -3e-4,-2.93584 2.3797,-5.31584 5.3155,-5.31554 z m 53.1501,0 c 2.9351,7e-4 5.314,2.3804 5.3137,5.31554 -7e-4,2.9344 -2.3793,5.3131 -5.3137,5.3138 -2.9351,3e-4 -5.3149,-2.3786 -5.3156,-5.3138 -3e-4,-2.93584 2.3797,-5.31594 5.3156,-5.31554 z"
     style="fill:none;stroke:#000000;stroke-width:0.35433072;stroke-miterlimit:4;stroke-dasharray:none;stroke-opacity:1" />
  <path
     sodipodi:nodetypes="ccccccccccccccccccccccc"
     inkscape:connector-curvature="0"
     id="path1178"
     d="m 1502.3622,803.44499 v 38.97583 l 25.6895,-1.3e-4 v -10.62927 h 26.5748 v 10.62927 l 25.689,1.3e-4 v -38.97583 l -25.689,-2e-5 v 10.62927 l -26.5748,-6.6e-4 v -10.62927 z m 12.4017,14.17236 c 2.9358,-3e-4 5.3158,2.37974 5.3155,5.31555 -7e-4,2.9351 -2.3804,5.31402 -5.3155,5.31372 -2.9351,3e-4 -5.3148,-2.37862 -5.3155,-5.31372 -3e-4,-2.93581 2.3797,-5.31585 5.3155,-5.31555 z m 53.1501,0 c 2.9351,7.5e-4 5.3139,2.38048 5.3136,5.31555 -7e-4,2.93436 -2.3792,5.31297 -5.3136,5.31372 -2.9352,4.1e-4 -5.315,-2.37854 -5.3157,-5.31372 -3e-4,-2.93589 2.3798,-5.31596 5.3157,-5.31555 z"
     style="fill:none;stroke:#000000;stroke-width:0.35433072;stroke-miterlimit:4;stroke-dasharray:none;stroke-opacity:1" />
  <path
     sodipodi:nodetypes="cccccccccccccccccsc"
     inkscape:connector-curvature="0"
     style="fill:none;stroke:#000000;stroke-width:0.35433072;stroke-miterlimit:4;stroke-dasharray:none;stroke-opacity:1"
     d="m 1502.3621,792.81571 v -24.80347 l 77.9534,-10e-4 v 24.80347 l -25.689,8.7e-4 v -10.63111 h -26.5748 v 10.63111 z m 12.4017,-8.85865 c 2.9358,3e-4 5.3158,-2.37974 5.3155,-5.31555 -7e-4,-2.9351 -2.3804,-5.31402 -5.3155,-5.31372 -2.9351,-3e-4 -5.3148,2.37862 -5.3155,5.31372 -3e-4,2.93581 2.3797,5.31585 5.3155,5.31555 z m 53.1501,0 c 2.9351,-7.5e-4 5.3139,-2.38048 5.3136,-5.31555 -7e-4,-2.93436 -2.3792,-5.31297 -5.3136,-5.31372 -2.9352,-4.1e-4 -5.315,2.37854 -5.3157,5.31372 -3e-4,2.93589 2.3798,5.31596 5.3157,5.31555 z"
     id="path1180" />
  <circle
     style="fill:none;stroke:#000000;stroke-width:0.35433072;stroke-miterlimit:4;stroke-dasharray:none;stroke-opacity:1"
     id="path1188"
     cx="2832.874"
     cy="532.3819"
     r="14.173212" />
  <rect
     style="fill:none;stroke:#000000;stroke-width:0.35433072;stroke-miterlimit:4;stroke-dasharray:none;stroke-opacity:1"
     id="rect2228"
     width="92.125923"
     height="92.125824"
     x="2909.0552"
     y="471.25986"
     ry="4.4935591e-06" />
  <rect
     style="fill:none;stroke:#000000;stroke-width:0.35433072;stroke-miterlimit:4;stroke-dasharray:none;stroke-opacity:1"
     id="rect2230"
     width="49.606346"
     height="10.629913"
     x="2930.3149"
     y="460.62994"
     ry="4.4935591e-06" />
  <circle
     style="fill:none;stroke:#000000;stroke-width:0.35433072;stroke-miterlimit:4;stroke-dasharray:none;stroke-opacity:1"
     id="path2232"
     cx="2955.1182"
     cy="532.3819"
     r="14.173287" />
  <rect
     style="fill:none;stroke:#000000;stroke-width:0.35433072;stroke-miterlimit:4;stroke-dasharray:none;stroke-opacity:1"
     id="rect2234"
     width="21.259809"
     height="10.629914"
     x="2944.488"
     y="471.25983"
     ry="4.4935591e-06" />
  <rect
     style="fill:none;stroke:#000000;stroke-width:0.35433072;stroke-miterlimit:4;stroke-dasharray:none;stroke-opacity:1"
     id="rect2236"
     width="10.629891"
     height="63.77951"
     x="2909.0552"
     y="485.43307"
     ry="4.4935591e-06" />
  <rect
     style="fill:none;stroke:#000000;stroke-width:0.35433072;stroke-miterlimit:4;stroke-dasharray:none;stroke-opacity:1"
     id="rect2238"
     width="10.629977"
     height="63.77951"
     x="2990.5513"
     y="485.43307"
     ry="4.4935591e-06" />
  <rect
     style="fill:none;stroke:#000000;stroke-width:0.35433072;stroke-miterlimit:4;stroke-dasharray:none;stroke-opacity:1"
     id="rect2240"
     width="49.6063"
     height="92.125977"
     x="3022.4409"
     y="471.25983"
     ry="4.4935591e-06" />
  <rect
     style="fill:none;stroke:#000000;stroke-width:0.35433072;stroke-miterlimit:4;stroke-dasharray:none;stroke-opacity:1"
     id="rect2242"
     width="10.629922"
     height="14.173229"
     x="3022.4409"
     y="471.25983"
     ry="4.4935591e-06" />
  <rect
     style="fill:none;stroke:#000000;stroke-width:0.35433072;stroke-miterlimit:4;stroke-dasharray:none;stroke-opacity:1"
     id="rect2246"
     width="21.259844"
     height="14.173222"
     x="3050.7874"
     y="471.25983"
     ry="4.4935591e-06" />
  <path
     id="path1016"
     d="m 678.54332,1220.6693 h 28.34655 c 7.85197,0 14.1742,6.3223 14.1742,14.1742 0,7.8519 -6.32223,14.1724 -14.1742,14.1724 h -28.34655 c -7.85198,0 -14.17237,-6.3205 -14.17237,-14.1724 0,-7.8519 6.32039,-14.1742 14.17237,-14.1742 z"
     style="fill:none;stroke:#000000;stroke-width:0.35433072;stroke-miterlimit:4;stroke-dasharray:none;stroke-opacity:1"
     inkscape:connector-curvature="0" />
  <path
     inkscape:connector-curvature="0"
     style="fill:none;stroke:#000000;stroke-width:0.35433072;stroke-miterlimit:4;stroke-dasharray:none;stroke-opacity:1"
     d="m 768.89764,1220.6693 h 28.34655 c 7.85197,0 14.1742,6.3223 14.1742,14.1742 0,7.8519 -6.32223,14.1724 -14.1742,14.1724 h -28.34655 c -7.85198,0 -14.17237,-6.3205 -14.17237,-14.1724 0,-7.8519 6.32039,-14.1742 14.17237,-14.1742 z"
     id="path1018" />
  <path
     inkscape:connector-curvature="0"
     style="fill:none;stroke:#000000;stroke-width:0.35433072;stroke-miterlimit:4;stroke-dasharray:none;stroke-opacity:1"
     d="m 859.25197,1220.6693 h 28.34655 c 7.85197,0 14.1742,6.3223 14.1742,14.1742 0,7.8519 -6.32223,14.1724 -14.1742,14.1724 h -28.34655 c -7.85198,0 -14.17237,-6.3205 -14.17237,-14.1724 0,-7.8519 6.32039,-14.1742 14.17237,-14.1742 z"
     id="path1022" />
  <path
     id="path1026"
     d="m 946.06299,1220.6693 h 28.34655 c 7.85197,0 14.1742,6.3223 14.1742,14.1742 0,7.8519 -6.32223,14.1724 -14.1742,14.1724 h -28.34655 c -7.85198,0 -14.17237,-6.3205 -14.17237,-14.1724 0,-7.8519 6.32039,-14.1742 14.17237,-14.1742 z"
     style="fill:none;stroke:#000000;stroke-width:0.35433072;stroke-miterlimit:4;stroke-dasharray:none;stroke-opacity:1"
     inkscape:connector-curvature="0" />
  <path
     id="path1028"
     d="m 1036.4172,1220.6693 h 28.3466 c 7.852,0 14.1742,6.3223 14.1742,14.1742 0,7.8519 -6.3222,14.1724 -14.1742,14.1724 h -28.3466 c -7.8519,0 -14.1723,-6.3205 -14.1723,-14.1724 0,-7.8519 6.3204,-14.1742 14.1723,-14.1742 z"
     style="fill:none;stroke:#000000;stroke-width:0.35433072;stroke-miterlimit:4;stroke-dasharray:none;stroke-opacity:1"
     inkscape:connector-curvature="0" />
  <path
     inkscape:connector-curvature="0"
     style="fill:none;stroke:#000000;stroke-width:0.35433072;stroke-miterlimit:4;stroke-dasharray:none;stroke-opacity:1"
     d="m 1126.7716,1220.6693 h 28.3465 c 7.852,0 14.1742,6.3223 14.1742,14.1742 0,7.8519 -6.3222,14.1724 -14.1742,14.1724 h -28.3465 c -7.852,0 -14.1724,-6.3205 -14.1724,-14.1724 0,-7.8519 6.3204,-14.1742 14.1724,-14.1742 z"
     id="path1030" />
  <path
     id="path1032"
     d="m 1217.1259,1220.6693 h 28.3465 c 7.852,0 14.1742,6.3223 14.1742,14.1742 0,7.8519 -6.3222,14.1724 -14.1742,14.1724 h -28.3465 c -7.852,0 -14.1724,-6.3205 -14.1724,-14.1724 0,-7.8519 6.3204,-14.1742 14.1724,-14.1742 z"
     style="fill:none;stroke:#000000;stroke-width:0.35433072;stroke-miterlimit:4;stroke-dasharray:none;stroke-opacity:1"
     inkscape:connector-curvature="0" />
  <path
     id="path1034"
     d="m 1307.4802,1220.6693 h 28.3466 c 7.8519,0 14.1742,6.3223 14.1742,14.1742 0,7.8519 -6.3223,14.1724 -14.1742,14.1724 h -28.3466 c -7.852,0 -14.1724,-6.3205 -14.1724,-14.1724 0,-7.8519 6.3204,-14.1742 14.1724,-14.1742 z"
     style="fill:none;stroke:#000000;stroke-width:0.35433072;stroke-miterlimit:4;stroke-dasharray:none;stroke-opacity:1"
     inkscape:connector-curvature="0" />
  <path
     inkscape:connector-curvature="0"
     style="fill:none;stroke:#000000;stroke-width:0.35433072;stroke-miterlimit:4;stroke-dasharray:none;stroke-opacity:1"
     d="m 1394.2912,1220.6693 h 28.3466 c 7.852,0 14.1742,6.3223 14.1742,14.1742 0,7.8519 -6.3222,14.1724 -14.1742,14.1724 h -28.3466 c -7.8519,0 -14.1723,-6.3205 -14.1723,-14.1724 0,-7.8519 6.3204,-14.1742 14.1723,-14.1742 z"
     id="path1036" />
  <path
     inkscape:connector-curvature="0"
     style="fill:none;stroke:#000000;stroke-width:0.35433072;stroke-miterlimit:4;stroke-dasharray:none;stroke-opacity:1"
     d="m 1484.6455,1220.6693 h 28.3466 c 7.852,0 14.1742,6.3223 14.1742,14.1742 0,7.8519 -6.3222,14.1724 -14.1742,14.1724 h -28.3466 c -7.8519,0 -14.1723,-6.3205 -14.1723,-14.1724 0,-7.8519 6.3204,-14.1742 14.1723,-14.1742 z"
     id="path1038" />
  <rect
     style="fill:none;stroke:#000000;stroke-width:0.35433072;stroke-miterlimit:4;stroke-dasharray:none;stroke-opacity:1"
     id="rect1050"
     width="901.77167"
     height="127.55908"
     x="634.25195"
     y="1194.0945"
     ry="4.4935591e-06" />
  <rect
     style="fill:none;stroke:#000000;stroke-width:0.35433072;stroke-miterlimit:4;stroke-dasharray:none;stroke-opacity:1"
     id="rect1060"
     width="120.47244"
     height="28.346457"
     x="675"
     y="1394.2914"
     ry="14.173228" />
  <rect
     ry="14.173228"
     y="1394.2914"
     x="850.39368"
     height="28.346457"
     width="120.47244"
     id="rect1062"
     style="fill:none;stroke:#000000;stroke-width:0.35433072;stroke-miterlimit:4;stroke-dasharray:none;stroke-opacity:1" />
  <rect
     ry="4.4935591e-06"
     y="1325.1969"
     x="634.25195"
     height="127.55908"
     width="901.77167"
     id="rect1066"
     style="fill:none;stroke:#000000;stroke-width:0.35433072;stroke-miterlimit:4;stroke-dasharray:none;stroke-opacity:1" />
  <rect
     style="fill:none;stroke:#000000;stroke-width:0.35433072;stroke-miterlimit:4;stroke-dasharray:none;stroke-opacity:1"
     id="rect1070"
     width="70.86615"
     height="120.47251"
     x="549.21265"
     y="1332.2834"
     ry="0" />
  <rect
     style="fill:none;stroke:#000000;stroke-width:0.35433072;stroke-miterlimit:4;stroke-dasharray:none;stroke-opacity:1"
     id="rect1072"
     width="49.606327"
     height="3.5434375"
     x="559.84253"
     y="1328.74" />
  <circle
     style="fill:none;stroke:#000000;stroke-width:0.35433072;stroke-miterlimit:4;stroke-dasharray:none;stroke-opacity:1"
     id="path1076"
     cx="439.37012"
     cy="1173.2628"
     r="5.3149571" />
  <rect
     style="fill:none;stroke:#000000;stroke-width:0.35433072;stroke-miterlimit:4;stroke-dasharray:none;stroke-opacity:1"
     id="rect1080"
     width="70.866165"
     height="120.47245"
     x="549.21259"
     y="1194.0945" />
  <rect
     y="1311.0237"
     x="559.84253"
     height="3.5433893"
     width="49.606274"
     id="rect1082"
     style="fill:none;stroke:#000000;stroke-width:0.35433072;stroke-miterlimit:4;stroke-dasharray:none;stroke-opacity:1" />
  <rect
     style="fill:none;stroke:#000000;stroke-width:0.35433072;stroke-miterlimit:4;stroke-dasharray:none;stroke-opacity:1"
     id="rect1084"
     width="70.866135"
     height="46.063007"
     x="403.93704"
     y="1206.4961" />
  <rect
     style="fill:none;stroke:#000000;stroke-width:0.35433072;stroke-miterlimit:4;stroke-dasharray:none;stroke-opacity:1"
     id="rect1086"
     width="28.346462"
     height="10.629922"
     x="425.19687"
     y="1195.8661" />
  <circle
     r="5.3149571"
     cy="1173.2628"
     cx="513.77954"
     id="circle1088"
     style="fill:none;stroke:#000000;stroke-width:0.35433072;stroke-miterlimit:4;stroke-dasharray:none;stroke-opacity:1" />
  <rect
     ry="14.173228"
     y="1394.2914"
     x="1025.7875"
     height="28.346457"
     width="120.47244"
     id="rect1092"
     style="fill:none;stroke:#000000;stroke-width:0.35433072;stroke-miterlimit:4;stroke-dasharray:none;stroke-opacity:1" />
  <rect
     style="fill:none;stroke:#000000;stroke-width:0.35433072;stroke-miterlimit:4;stroke-dasharray:none;stroke-opacity:1"
     id="rect1094"
     width="120.47244"
     height="28.346457"
     x="1201.1812"
     y="1394.2914"
     ry="14.173228" />
  <rect
     style="fill:none;stroke:#000000;stroke-width:0.35433072;stroke-miterlimit:4;stroke-dasharray:none;stroke-opacity:1"
     id="rect1098"
     width="120.47244"
     height="28.346457"
     x="1376.5748"
     y="1394.2914"
     ry="14.173228" />
  <rect
     ry="14.173228"
     y="1394.2914"
     x="1551.9685"
     height="28.346457"
     width="120.47244"
     id="rect1100"
     style="fill:none;stroke:#000000;stroke-width:0.35433072;stroke-miterlimit:4;stroke-dasharray:none;stroke-opacity:1" />
  <circle
     style="fill:none;stroke:#000000;stroke-width:0.35433072;stroke-miterlimit:4;stroke-dasharray:none;stroke-opacity:1"
     id="path1104"
     cx="669.685"
     cy="1234.8427"
     r="5.3149533" />
  <circle
     r="5.3149533"
     cy="1234.8425"
     cx="715.74799"
     id="circle1106"
     style="fill:none;stroke:#000000;stroke-width:0.35433072;stroke-miterlimit:4;stroke-dasharray:none;stroke-opacity:1" />
  <circle
     r="5.3149533"
     cy="1234.8425"
     cx="563.3858"
     id="circle1108"
     style="fill:none;stroke:#000000;stroke-width:0.35433072;stroke-miterlimit:4;stroke-dasharray:none;stroke-opacity:1" />
  <circle
     style="fill:none;stroke:#000000;stroke-width:0.35433072;stroke-miterlimit:4;stroke-dasharray:none;stroke-opacity:1"
     id="circle1110"
     cx="609.44879"
     cy="1234.8425"
     r="5.3149533" />
  <rect
     style="fill:none;stroke:#000000;stroke-width:0.35433072;stroke-miterlimit:4;stroke-dasharray:none;stroke-opacity:1"
     id="rect1116"
     width="7.0865779"
     height="28.346455"
     x="689.17328"
     y="1192.3229" />
  <rect
     style="fill:none;stroke:#000000;stroke-width:0.35433072;stroke-miterlimit:4;stroke-dasharray:none;stroke-opacity:1"
     id="rect1118"
     width="10.629944"
     height="120.47237"
     x="650.19684"
     y="1194.0946" />
  <circle
     style="fill:none;stroke:#000000;stroke-width:0.35433072;stroke-miterlimit:4;stroke-dasharray:none;stroke-opacity:1"
     id="circle1120"
     cx="418.11023"
     cy="1236.6141"
     r="5.3149533" />
  <circle
     r="5.3149533"
     cy="1236.6141"
     cx="464.17322"
     id="circle1122"
     style="fill:none;stroke:#000000;stroke-width:0.35433072;stroke-miterlimit:4;stroke-dasharray:none;stroke-opacity:1" />
  <rect
     y="1332.2834"
     x="648.42517"
     height="120.47237"
     width="10.629944"
     id="rect1051"
     style="fill:none;stroke:#000000;stroke-width:0.35433072;stroke-miterlimit:4;stroke-dasharray:none;stroke-opacity:1" />
  <circle
     style="fill:none;stroke:#000000;stroke-width:0.35433072;stroke-miterlimit:4;stroke-dasharray:none;stroke-opacity:1"
     id="path1069"
     cx="586.4173"
     cy="1234.8425"
     r="14.173228" />
  <path
     style="fill:none;stroke:#000000;stroke-width:0.37795275;stroke-miterlimit:4;stroke-dasharray:none;stroke-opacity:1"
     d="M 2658.8984 539.52734 A 14.173251 14.173251 0 0 0 2644.7246 553.70117 A 14.173251 14.173251 0 0 0 2658.8984 567.875 A 14.173251 14.173251 0 0 0 2673.0703 553.70117 A 14.173251 14.173251 0 0 0 2658.8984 539.52734 z M 2658.8984 548.03125 A 5.6692617 5.6692617 0 0 1 2664.5664 553.70117 A 5.6692617 5.6692617 0 0 1 2658.8984 559.36914 A 5.6692617 5.6692617 0 0 1 2653.2285 553.70117 A 5.6692617 5.6692617 0 0 1 2658.8984 548.03125 z "
     transform="scale(0.9375)"
     id="path1077" />
  <path
     id="path1082"
     d="m 2492.7165,537.69687 a 13.287423,13.287423 0 0 0 -13.2879,13.28797 13.287423,13.287423 0 0 0 13.2879,13.28796 13.287423,13.287423 0 0 0 13.2862,-13.28796 13.287423,13.287423 0 0 0 -13.2862,-13.28797 z m 0,7.97242 a 5.3149328,5.3149328 0 0 1 5.3138,5.31555 5.3149328,5.3149328 0 0 1 -5.3138,5.31372 5.3149328,5.3149328 0 0 1 -5.3155,-5.31372 5.3149328,5.3149328 0 0 1 5.3155,-5.31555 z"
     style="fill:none;stroke:#000000;stroke-width:0.35433072;stroke-miterlimit:4;stroke-dasharray:none;stroke-opacity:1"
     inkscape:connector-curvature="0" />
  <path
     inkscape:connector-curvature="0"
     style="fill:none;stroke:#000000;stroke-width:0.35433072;stroke-miterlimit:4;stroke-dasharray:none;stroke-opacity:1"
     d="m 2492.7165,566.04333 a 13.287423,13.287423 0 0 0 -13.2879,13.28797 13.287423,13.287423 0 0 0 13.2879,13.28796 13.287423,13.287423 0 0 0 13.2862,-13.28796 13.287423,13.287423 0 0 0 -13.2862,-13.28797 z m 0,7.97242 a 5.3149328,5.3149328 0 0 1 5.3138,5.31555 5.3149328,5.3149328 0 0 1 -5.3138,5.31372 5.3149328,5.3149328 0 0 1 -5.3155,-5.31372 5.3149328,5.3149328 0 0 1 5.3155,-5.31555 z"
     id="path1084" />
  <path
     style="fill:none;stroke:#000000;stroke-width:0.35433072;stroke-miterlimit:4;stroke-dasharray:none;stroke-opacity:1"
     d="m 1693.7014,853.04939 v 24.80354 h 77.9533 v -24.80354 l -25.689,-10e-4 v 10.6312 l -26.5748,0.001 v -10.631 z m 12.4017,8.8587 c 2.9359,-4e-4 5.3159,2.3797 5.3156,5.31554 -7e-4,2.9352 -2.3805,5.3141 -5.3156,5.3138 -2.9351,3e-4 -5.3148,-2.3787 -5.3155,-5.3138 -3e-4,-2.93584 2.3797,-5.31584 5.3155,-5.31554 z m 53.1501,0 c 2.9351,7e-4 5.314,2.3804 5.3137,5.31554 -7e-4,2.9344 -2.3793,5.3131 -5.3137,5.3138 -2.9351,3e-4 -5.3149,-2.3786 -5.3156,-5.3138 -3e-4,-2.93584 2.3797,-5.31594 5.3156,-5.31554 z"
     id="path2130"
     inkscape:connector-curvature="0"
     sodipodi:nodetypes="cccccccccccccccccsc" />
  <path
     style="fill:none;stroke:#000000;stroke-width:0.35433072;stroke-miterlimit:4;stroke-dasharray:none;stroke-opacity:1"
     d="m 1693.7014,803.44399 v 38.97583 l 25.6895,-1.3e-4 v -10.62927 h 26.5748 v 10.62927 l 25.689,1.3e-4 v -38.97583 l -25.689,-2e-5 v 10.62927 l -26.5748,-6.6e-4 v -10.62927 z m 12.4017,14.17236 c 2.9358,-3e-4 5.3158,2.37974 5.3155,5.31555 -7e-4,2.9351 -2.3804,5.31402 -5.3155,5.31372 -2.9351,3e-4 -5.3148,-2.37862 -5.3155,-5.31372 -3e-4,-2.93581 2.3797,-5.31585 5.3155,-5.31555 z m 53.1501,0 c 2.9351,7.5e-4 5.3139,2.38048 5.3136,5.31555 -7e-4,2.93436 -2.3792,5.31297 -5.3136,5.31372 -2.9352,4.1e-4 -5.315,-2.37854 -5.3157,-5.31372 -3e-4,-2.93589 2.3798,-5.31596 5.3157,-5.31555 z"
     id="path2132"
     inkscape:connector-curvature="0"
     sodipodi:nodetypes="ccccccccccccccccccccccc" />
  <path
     id="path2134"
     d="m 1693.7013,792.81471 v -24.80347 l 77.9534,-0.001 v 24.80347 l -25.689,8.7e-4 v -10.63111 h -26.5748 v 10.63111 z m 12.4017,-8.85865 c 2.9358,3e-4 5.3158,-2.37974 5.3155,-5.31555 -7e-4,-2.9351 -2.3804,-5.31402 -5.3155,-5.31372 -2.9351,-3e-4 -5.3148,2.37862 -5.3155,5.31372 -3e-4,2.93581 2.3797,5.31585 5.3155,5.31555 z m 53.1501,0 c 2.9351,-7.5e-4 5.3139,-2.38048 5.3136,-5.31555 -7e-4,-2.93436 -2.3792,-5.31297 -5.3136,-5.31372 -2.9352,-4.1e-4 -5.315,2.37854 -5.3157,5.31372 -3e-4,2.93589 2.3798,5.31596 5.3157,5.31555 z"
     style="fill:none;stroke:#000000;stroke-width:0.35433072;stroke-miterlimit:4;stroke-dasharray:none;stroke-opacity:1"
     inkscape:connector-curvature="0"
     sodipodi:nodetypes="cccccccccccccccccsc" />
  <path
     id="path2136"
     d="m 2154.3307,749.40952 v 8.85864 h -157.6776 c -18.5912,-3.6e-4 -33.6626,15.07083 -33.6622,33.66211 7e-4,18.59053 15.0716,33.66068 33.6622,33.66028 h 157.6776 v 47.83447 h 106.2982 v -47.83447 h 157.6776 c 18.5905,4e-4 33.6616,-15.06975 33.6621,-33.66028 4e-4,-18.59128 -15.0707,-33.66253 -33.6621,-33.66211 h -157.6776 v -8.85864 z m 53.1482,5.31555 6.1376,3.54309 v 7.08618 l -6.1376,3.54309 -6.1359,-3.54309 v -7.08618 z m 0,15.94483 c 11.7418,-3.1e-4 21.2606,9.51837 21.2604,21.26037 -0.011,7.584 -4.0615,14.58784 -10.6293,18.38013 v 13.50952 h -21.2604 v -13.5022 c -6.5701,-3.79359 -10.6209,-10.80082 -10.6292,-18.38745 -5e-4,-11.74125 9.5173,-21.2597 21.2585,-21.26037 z m -210.8258,14.17419 a 7.0866366,7.0866366 0 0 1 7.0862,7.08618 7.0866366,7.0866366 0 0 1 -7.0862,7.08618 7.0866366,7.0866366 0 0 1 -7.088,-7.08618 7.0866366,7.0866366 0 0 1 7.088,-7.08618 z m 421.6534,0 c 3.9135,2.5e-4 7.0859,3.17269 7.0862,7.08618 -3e-4,3.91349 -3.1727,7.08593 -7.0862,7.08618 -3.9142,7.9e-4 -7.0877,-3.17196 -7.088,-7.08618 3e-4,-3.91422 3.1738,-7.08697 7.088,-7.08618 z m -333.0706,1.77063 c 2.9357,-3.8e-4 5.3158,2.37968 5.3155,5.31555 -7e-4,2.93513 -2.3806,5.31409 -5.3155,5.31372 -2.9352,3.7e-4 -5.3149,-2.37869 -5.3156,-5.31372 -4e-4,-2.93578 2.3797,-5.31593 5.3156,-5.31555 z m 53.1499,0 c 2.9345,7e-4 5.3131,2.37936 5.3138,5.31372 3e-4,2.9351 -2.3787,5.31485 -5.3138,5.31555 -2.9358,3.5e-4 -5.3158,-2.37971 -5.3155,-5.31555 7e-4,-2.9351 2.3805,-5.31407 5.3155,-5.31372 z m 26.5741,0 c 2.9358,-2.8e-4 5.316,2.37977 5.3156,5.31555 -7e-4,2.93503 -2.3805,5.31409 -5.3156,5.31372 -2.9351,3.7e-4 -5.3148,-2.37859 -5.3155,-5.31372 -3e-4,-2.93587 2.3797,-5.31593 5.3155,-5.31555 z m 85.0397,0 c 2.9358,-2.8e-4 5.3159,2.37977 5.3155,5.31555 -6e-4,2.93503 -2.3803,5.31409 -5.3155,5.31372 -2.935,3.7e-4 -5.3149,-2.37859 -5.3155,-5.31372 -3e-4,-2.93587 2.3798,-5.31593 5.3155,-5.31555 z m 26.5741,0 c 2.9351,-3.5e-4 5.315,2.37861 5.3155,5.31372 4e-4,2.93585 -2.3797,5.3159 -5.3155,5.31555 -2.935,-7e-4 -5.314,-2.38044 -5.3137,-5.31555 7e-4,-2.93437 2.3793,-5.31302 5.3137,-5.31372 z m 53.1501,0 c 2.9357,-3.8e-4 5.3158,2.37977 5.3155,5.31555 -7e-4,2.93503 -2.3805,5.31409 -5.3155,5.31372 -2.9352,3.7e-4 -5.3149,-2.37859 -5.3156,-5.31372 -3e-4,-2.93587 2.3797,-5.31593 5.3156,-5.31555 z m -122.2449,69.97925 c 1.9581,-9e-4 3.5458,1.58682 3.5449,3.54492 -10e-5,1.9574 -1.5874,3.54409 -3.5449,3.54309 -1.9567,-10e-5 -3.543,-1.58629 -3.5431,-3.54309 0,-1.9575 1.5857,-3.54482 3.5431,-3.54492 z"
     style="fill:none;stroke:#000000;stroke-width:0.35433072;stroke-miterlimit:4;stroke-dasharray:none;stroke-opacity:1"
     inkscape:connector-curvature="0" />
  <path
     id="path2156"
     d="m 1336.7713,557.72551 v 74.41039 h -10.6311 v 14.17237 h 10.6311 v 21.26037 h -10.6311 v 14.17237 h 10.6311 v 28.34655 h -10.6311 v 14.1742 h 10.6311 v 14.17236 h 67.3224 v -14.17236 h 10.6292 v -14.1742 h -10.6292 v -28.34473 h 10.6292 v -14.17419 h -10.6292 v -21.26037 h 10.6292 V 632.1359 h -10.6292 v -74.41039 z m 33.6603,9.94262 9.8016,5.65796 v 11.31958 l -9.8016,5.65796 -9.8017,-5.65796 v -11.31958 z m -37.2053,68.01087 c 1.9575,-8.9e-4 3.5449,1.58564 3.545,3.54309 -1e-4,1.95744 -1.5875,3.54397 -3.545,3.54308 -1.9567,-1.1e-4 -3.543,-1.58634 -3.5431,-3.54308 10e-5,-1.95675 1.5864,-3.54298 3.5431,-3.54309 z m 74.4104,0 c 1.9569,1.1e-4 3.543,1.58634 3.5431,3.54309 -10e-5,1.95674 -1.5862,3.54297 -3.5431,3.54308 -1.9567,-1.1e-4 -3.543,-1.58634 -3.543,-3.54308 0,-1.95675 1.5863,-3.54298 3.543,-3.54309 z m -74.4104,35.43273 c 1.9575,-8.8e-4 3.5449,1.58564 3.545,3.5431 -1e-4,1.95744 -1.5875,3.54396 -3.545,3.54308 -1.9567,-10e-5 -3.543,-1.58633 -3.5431,-3.54308 10e-5,-1.95675 1.5864,-3.54298 3.5431,-3.5431 z m 74.4104,0 c 1.9569,1.2e-4 3.543,1.58635 3.5431,3.5431 -10e-5,1.95675 -1.5862,3.54298 -3.5431,3.54308 -1.9567,-10e-5 -3.543,-1.58633 -3.543,-3.54308 0,-1.95675 1.5863,-3.54298 3.543,-3.5431 z m -37.2051,13.48573 9.8016,5.65795 v 11.31775 l -9.8016,5.65979 -9.8017,-5.65979 v -11.31775 z m -37.2034,29.03503 c 1.9568,1.1e-4 3.543,1.58634 3.5431,3.54309 -1e-4,1.95673 -1.5864,3.54298 -3.5431,3.54308 -1.9574,8.9e-4 -3.5449,-1.58564 -3.545,-3.54308 10e-5,-1.95746 1.5875,-3.54397 3.545,-3.54309 z m 74.4085,0 c 1.9569,1.1e-4 3.543,1.58634 3.5431,3.54309 -10e-5,1.95673 -1.5863,3.54298 -3.5431,3.54308 -1.9566,-10e-5 -3.543,-1.58635 -3.543,-3.54308 0,-1.95675 1.5863,-3.54298 3.543,-3.54309 z"
     style="fill:none;stroke:#000000;stroke-width:0.35433072;stroke-miterlimit:4;stroke-dasharray:none;stroke-opacity:1"
     inkscape:connector-curvature="0" />
  <circle
     style="fill:none;stroke:#000000;stroke-width:0.35433072;stroke-miterlimit:4;stroke-dasharray:none;stroke-opacity:1"
     id="path2164"
     cx="2650.3938"
     cy="637.79529"
     r="6.2008605" />
  <circle
     style="fill:none;stroke:#000000;stroke-width:0.35433072;stroke-miterlimit:4;stroke-dasharray:none;stroke-opacity:1"
     id="path2166"
     cx="2832.874"
     cy="532.3819"
     r="7.086627" />
</svg>
